<?xml version="1.0" encoding="utf-8"?>
<!-- Generator: Adobe Illustrator 16.2.1, SVG Export Plug-In . SVG Version: 6.00 Build 0)  -->
<!DOCTYPE svg PUBLIC "-//W3C//DTD SVG 1.1//EN" "http://www.w3.org/Graphics/SVG/1.1/DTD/svg11.dtd">
<svg version="1.1" id="Layer_1" xmlns="http://www.w3.org/2000/svg" xmlns:xlink="http://www.w3.org/1999/xlink" x="0px" y="0px"
	 width="331.522px" height="480.99px" viewBox="0 0 331.522 480.99" enable-background="new 0 0 331.522 480.99"
	 xml:space="preserve">
<g>
	<path fill="#FFFFFF" d="M325.261,234.98c-13.471-63.16-47.611-119.87-91.76-200.73C221.871,12.931,201.871,0,167.831,0
		c-0.351,0-0.69,0.011-1.04,0.021c-0.35-0.01-0.68-0.021-1.029-0.021c-0.351,0-0.681,0.011-1.031,0.021
		C164.38,0.011,164.041,0,163.691,0c-34.041,0-54.03,12.931-65.67,34.25c-44.141,80.86-78.28,137.57-91.75,200.73
		C2.13,254.37-0.059,274.37,0,295.87c0.011,0.311,0.011,0.63,0.011,0.94c0,14.38,1.949,28.91,5.56,43.17
		C24.39,414.2,88.81,480.99,163.691,480.99c0.35,0,0.689-0.01,1.039-0.01c0.341,0,0.69,0.01,1.031,0.01
		c0.34,0,0.689-0.01,1.029-0.01c0.35,0,0.689,0.01,1.04,0.01c74.89,0,139.31-66.79,158.13-141.01
		c3.611-14.26,5.551-28.79,5.551-43.17c0-0.561,0-0.89,0.01-1.061C331.582,274.29,329.38,254.33,325.261,234.98z"/>
	<g>
		<path fill="#139747" d="M25.429,219.98c13.107-46.556,37.695-91.195,70.299-150.39c4.996-9.071,10.155-18.438,15.459-28.153
			C121.169,23.154,137.362,15,163.691,15c0.172,0,0.339,0.007,0.51,0.012l0.529,0.015l0.551-0.016
			c0.161-0.005,0.316-0.011,0.48-0.011c0.162,0,0.318,0.006,0.479,0.011l0.55,0.016l0.529-0.015
			c0.172-0.005,0.339-0.012,0.511-0.012c26.337,0,42.53,8.152,52.503,26.434c5.297,9.702,10.447,19.052,15.436,28.108
			c32.619,59.213,57.221,103.871,70.334,150.438H25.429z"/>
	</g>
	<g>
		<path fill="#056BA8" d="M13.753,323.28l12.734-74.568h13.75l11.896,74.568H36.591l-2.332-14.873H22.242l-2.51,14.873
			C19.612,323.28,13.753,323.28,13.753,323.28z M32.824,299.177l-4.305-29.13l-4.723,29.13H32.824z"/>
		<path fill="#056BA8" d="M55.005,248.712h15.664l8.131,53.233l8.848-53.233h5.739L80.712,323.28H66.664L55.005,248.712z"/>
		<path fill="#056BA8" d="M117.482,324.818c-12.555,0-21.104-18.257-21.104-38.771c-0.061-20.72,8.07-38.771,20.863-38.771
			c12.555,0,20.925,14.359,20.925,38.053c0,3.077-0.119,6.154-0.419,9.437c-1.314,16.309-7.473,27.079-16.68,29.54
			C119.813,324.613,118.617,324.818,117.482,324.818z M112.639,280.406c0,1.949,0,3.795,0,5.539c0,12.615,0,31.078,4.663,31.078
			c4.543,0,5.082-18.771,4.962-31.694c0-12.308-0.358-30.36-4.962-30.463C112.938,254.764,112.639,268.61,112.639,280.406z"/>
		<path fill="#056BA8" d="M179.478,271.688l-6.695,5.129c0.061-1.025,0.119-1.847,0.119-2.667c0.061-1.025,0.061-2.052,0.061-2.975
			c0-10.359-1.794-14.872-4.843-16.206c-0.718-0.308-1.315-0.41-1.913-0.41c-3.945,0-5.619,7.077-6.098,27.488
			c-0.061,2.77-0.061,5.539-0.061,8.104c0.24,19.488,2.393,26.771,7.115,26.771c0.777,0,1.613-0.205,2.57-0.615
			c3.408-1.437,5.5-6.359,5.5-16.514c0-1.539,0-3.18-0.119-4.821c0-0.923-0.061-1.846-0.18-2.666l6.517,2.666
			c0.06,1.129,0.12,2.359,0.12,3.59c0,15.796-5.621,26.258-16.621,26.258c-1.195,0-2.51-0.205-3.826-0.41
			c-10.582-1.846-17.457-14.77-17.457-36.207c0-3.077,0.18-6.154,0.419-9.334c1.435-17.539,8.251-29.334,17.876-31.283
			c1.195-0.205,2.331-0.308,3.407-0.308c8.669,0,13.332,7.59,14.05,21.231C179.478,269.534,179.478,270.662,179.478,271.688z"/>
		<path fill="#056BA8" d="M185.937,323.28l12.734-74.568h13.75l11.896,74.568h-15.543l-2.332-14.873h-12.016l-2.512,14.873
			C191.796,323.28,185.937,323.28,185.937,323.28z M205.009,299.177l-4.306-29.13l-4.723,29.13H205.009z"/>
		<path fill="#056BA8" d="M230.658,323.28v-74.568h20.625c11.777,0,19.371,13.334,19.49,37.644
			c0.061,23.283-7.771,36.925-20.387,36.925C250.386,323.28,231.017,323.28,230.658,323.28z M248.294,315.588
			c4.184,0,6.217-4.719,6.217-24.515c0-23.591-1.912-35.489-5.918-35.489l-2.451,0.719v59.285H248.294z"/>
		<path fill="#056BA8" d="M297.498,324.818c-12.555,0-21.104-18.257-21.104-38.771c-0.061-20.72,8.07-38.771,20.865-38.771
			c12.555,0,20.924,14.359,20.924,38.053c0,3.077-0.119,6.154-0.418,9.437c-1.316,16.309-7.473,27.079-16.68,29.54
			C299.83,324.613,298.634,324.818,297.498,324.818z M292.656,280.406c0,1.949,0,3.795,0,5.539c0,12.615,0,31.078,4.662,31.078
			c4.545,0,5.082-18.771,4.963-31.694c0-12.308-0.359-30.36-4.963-30.463C292.955,254.764,292.656,268.61,292.656,280.406z"/>
	</g>
	<g>
		<path fill="#139747" d="M166.791,465.98c-0.24,0-1.029,0.01-1.029,0.01s-0.791-0.01-1.031-0.01c-0.246,0-1.039,0.01-1.039,0.01
			c-31.256,0-63.164-13.721-89.846-38.636c-21.158-19.758-37.771-44.966-47.918-72.374h279.676
			c-10.146,27.408-26.758,52.616-47.918,72.374c-26.684,24.914-58.595,38.636-89.854,38.636
			C167.831,465.99,167.037,465.98,166.791,465.98z"/>
	</g>
</g>
</svg>
