<?xml version="1.0" encoding="utf-8"?>
<!-- Generator: Adobe Illustrator 16.0.0, SVG Export Plug-In . SVG Version: 6.00 Build 0)  -->
<!DOCTYPE svg PUBLIC "-//W3C//DTD SVG 1.1//EN" "http://www.w3.org/Graphics/SVG/1.1/DTD/svg11.dtd">
<svg version="1.1" id="Layer_1" xmlns="http://www.w3.org/2000/svg" xmlns:xlink="http://www.w3.org/1999/xlink" x="0px" y="0px"
	 width="644.5px" height="441.5px" viewBox="0 0 644.5 441.5" enable-background="new 0 0 644.5 441.5" xml:space="preserve">
<ellipse fill="#42BF00" cx="322.943" cy="220.921" rx="300.557" ry="201.822"/>
<ellipse fill="none" stroke="#FFFFFF" stroke-width="22" stroke-miterlimit="10" cx="322.943" cy="223.011" rx="310.484" ry="208.489"/>
<path fill="none" stroke="#FFFFFF" stroke-width="9" stroke-miterlimit="10" d="M322.943,389.41
	c-75.076,0-145.126-19.274-197.247-54.272C78.47,303.424,52.46,262.861,52.46,220.921c0-41.94,26.01-82.503,73.237-114.217
	c52.12-34.998,122.17-54.272,197.247-54.272s145.128,19.274,197.247,54.272c47.229,31.714,73.237,72.276,73.237,114.217
	c0,41.94-26.01,82.503-73.237,114.217C468.071,370.136,398.021,389.41,322.943,389.41z"/>
<g>
	<g>
		<path fill="#FFFFFF" d="M287.997,248.973l-1.149,13.022c0,0-3.256,1.915-13.405,6.896c-2.873,1.529-5.554,2.105-8.235,2.105
			c-8.618,0-16.277-6.321-15.321-18.959c0.191-3.256,0.575-6.703,0.766-9.961l4.598-51.899c-3.064,1.343-7.277,3.258-10.342,4.599
			l0.957-13.215c0,0,5.171-2.298,15.512-7.277c3.064-1.341,5.746-2.105,8.236-2.105c8.618,0,16.278,6.512,15.322,18.957
			c-0.192,3.258-0.768,6.705-0.959,9.961l-4.596,51.708L287.997,248.973z M291.062,143.643c-0.957,10.532-9.575,19.15-18.959,19.15
			c-9.767,0-16.853-8.809-15.896-19.534c0.767-10.534,9.576-19.15,18.959-19.15C284.935,124.108,291.828,132.917,291.062,143.643z"
			/>
		<path fill="#FFFFFF" d="M432.013,252.994c3.255-1.342,7.086-3.064,10.341-4.404l-1.147,13.021l-15.32,7.471
			c-2.681,1.338-5.746,1.914-8.234,1.914c-8.619,0-16.278-6.129-15.321-18.768c0.191-3.447,0.574-6.896,0.764-10.344l3.641-41.749
			c0.959-8.617-4.022-11.299-9.384-11.299c-2.872,0-5.555,0.766-7.469,1.531c-1.342,0.576-1.725,0.766-2.491,0.957
			c0.959,3.449,1.342,7.47,0.959,12.066c-0.384,4.022-0.768,8.81-0.959,13.598l-3.254,36.004c3.254-1.341,7.086-3.063,10.342-4.404
			l-1.149,13.022l-15.32,7.47c-2.872,1.53-5.555,2.104-8.235,2.104c-8.618,0-16.469-6.319-15.512-18.957
			c0.191-3.449,0.766-6.896,0.959-10.345l3.637-41.749c0.957-8.617-4.404-11.299-9.768-11.299c-3.255,0-5.553,0.572-7.277,1.339
			c-0.19,0.192-0.383,0.385-0.957,0.577v0.381l-0.957,9.961l-4.596,51.898c3.254-1.342,7.276-3.258,10.532-4.598l-1.149,12.258
			c0,0-5.17,3.256-15.32,8.234c-2.682,1.342-5.745,2.106-8.236,2.106c-8.616,0-16.277-6.321-15.32-18.959
			c0.192-3.257,0.575-6.703,0.767-9.961l4.597-51.899c-3.064,1.343-7.278,3.258-10.344,4.599l1.151-13.024l15.32-7.468
			c2.682-1.531,5.746-2.105,8.235-2.105c4.979,0,9.958,2.68,13.214,7.659v-0.767c0.384-0.19,0.958-0.381,1.341-0.573
			c1.532-0.573,3.064-1.342,5.172-2.301c5.553-2.487,11.107-3.637,16.086-3.637c8.043,0,15.512,2.872,20.875,8.81v-0.385
			c0.766-0.381,1.916-0.955,3.445-1.53c1.916-0.765,4.406-1.914,7.662-3.258c5.553-2.487,11.108-3.637,16.086-3.637
			c15.322,0,28.727,9.96,27.004,30.643c-0.382,3.255-0.766,7.085-0.958,10.533c-0.192,1.148-0.192,2.104-0.192,3.063
			L432.013,252.994z"/>
		<path fill="#FFFFFF" d="M513.979,239.779c6.319,0,9.959,6.512,9,12.258c-2.681,13.596-21.832,19.917-34.089,19.917
			c-3.445,0.19-6.511-0.19-7.851-0.386c-22.407-2.486-31.024-27.768-29.302-49.025c2.298-24.13,12.831-50.365,44.813-50.365
			c14.172,0,34.854,9.957,32.939,31.789c-1.34,12.64-7.471,20.11-20.686,26.238c-9.189,4.021-19.342,8.811-28.531,12.829
			c0.381,8.237,3.637,16.854,12.256,16.854h1.53v1.532c0.957-4.981,4.404-15.896,14.363-20.11
			C510.914,240.162,512.638,239.779,513.979,239.779z M480.655,230.014c2.681-1.149,7.087-3.256,9.577-4.406
			c11.488-5.938,12.256-13.021,13.021-20.682c0.764-7.661-0.767-19.534-9.193-19.534c-9.767,0-10.531,13.596-11.3,21.642
			L480.655,230.014z"/>
	</g>
	<g>
		<path fill="#FFFFFF" d="M383.038,296.557c-23.752,22.17-112.662,17.192-127.23,17.192c-5.7,0-10.45-0.316-15.201-0.316
			c-4.117,0-7.917-0.316-11.717-0.316c-3.484,0-7.918,0.316-11.401,0.634c-18.368,1.585-35.786,6.335-49.088,12.032
			c-1.9,0.952-5.066,1.901-6.968,2.853l1.901-21.535c6.966-4.117,9.184-9.185,10.451-18.052l2.85-35.153v0.316
			c0-1.266,0.633-3.166,0.633-4.436l0.951-12.981l3.799-43.071c1.584-20.585,3.802-38.952,5.384-59.538
			c-5.065,2.217-12.35,5.384-17.417,7.6l2.216-21.533l25.336-12.354c4.434-2.217,9.184-3.484,13.618-3.484
			c13.618,0,26.604,11.719,25.335,31.354c-0.316,5.067-0.95,11.401-1.266,16.469l-7.602,83.606
			c-2.533,22.804-7.6,43.072-17.733,58.272c6.017-0.949,12.35-1.268,19.001-1.268h28.185c6.977,0,39.618,3.94,70.288,4.938
			c25.019,0.813,48.726-0.324,56.125-7.154L383.038,296.557z"/>
	</g>
</g>
</svg>
