<?xml version="1.0" encoding="utf-8"?>
<!-- Generator: Adobe Illustrator 16.0.0, SVG Export Plug-In . SVG Version: 6.00 Build 0)  -->
<!DOCTYPE svg PUBLIC "-//W3C//DTD SVG 1.1//EN" "http://www.w3.org/Graphics/SVG/1.1/DTD/svg11.dtd">
<svg version="1.1" xmlns="http://www.w3.org/2000/svg" xmlns:xlink="http://www.w3.org/1999/xlink" x="0px" y="0px"
	 width="380.77px" height="451px" viewBox="0 0 380.77 451" enable-background="new 0 0 380.77 451" xml:space="preserve">
<g id="Layer_1">
	<g>
		<linearGradient id="SVGID_1_" gradientUnits="userSpaceOnUse" x1="190.3848" y1="5" x2="190.3848" y2="446.0005">
			<stop  offset="0" style="stop-color:#ED2124"/>
			<stop  offset="1" style="stop-color:#ED2124"/>
		</linearGradient>
		<path fill="url(#SVGID_1_)" d="M375.77,260.615c0,102.386-83,185.385-185.385,185.385l0,0C87.999,446,5,363.001,5,260.615V225
			v-34.615C5,88,87.999,5,190.385,5l0,0C292.77,5,375.77,88,375.77,190.385V260.615z"/>
	</g>
	<g>
		<path fill="#FFFFFF" d="M190.385,451C85.406,451,0,365.594,0,260.615v-70.23C0,85.406,85.406,0,190.385,0
			C295.364,0,380.77,85.406,380.77,190.385v70.23C380.77,365.594,295.364,451,190.385,451z M190.385,10
			C90.92,10,10,90.92,10,190.385v70.23C10,360.08,90.92,441,190.385,441S370.77,360.08,370.77,260.615v-70.23
			C370.77,90.92,289.849,10,190.385,10z"/>
	</g>
	<g>
		<path fill="#FFFFFF" d="M190.385,411C107.462,411,40,343.538,40,260.615v-70.23C40,107.462,107.462,40,190.385,40
			S340.77,107.462,340.77,190.385v70.23C340.77,343.538,273.307,411,190.385,411z M190.385,50C112.977,50,50,112.977,50,190.385
			v70.23C50,338.023,112.977,401,190.385,401c77.409,0,140.385-62.977,140.385-140.385v-70.23C330.77,112.977,267.793,50,190.385,50
			z"/>
	</g>
	<g>
		<path fill="#FFFFFF" d="M190.385,411C107.462,411,40,343.538,40,260.615v-70.23C40,107.462,107.462,40,190.385,40
			S340.77,107.462,340.77,190.385v70.23C340.77,343.538,273.307,411,190.385,411z M190.385,50C112.977,50,50,112.977,50,190.385
			v70.23C50,338.023,112.977,401,190.385,401c77.409,0,140.385-62.977,140.385-140.385v-70.23C330.77,112.977,267.793,50,190.385,50
			z"/>
	</g>
	<g>
		<g id="XMLID_3_">
			<g>
				<polygon fill="#FFFFFF" points="307.533,167.239 307.533,167.263 190.447,167.263 73.265,167.287 73.265,167.239 
					79.778,148.907 148.162,148.907 95.216,123.41 109.013,108.648 161.67,134 132.532,91.884 150.478,83.924 180.75,127.656 
					180.75,77.556 200.047,77.556 200.047,127.656 230.32,83.924 248.266,91.884 219.127,134 271.76,108.648 285.583,123.41 
					232.66,148.907 301.02,148.907 				"/>
				<path fill="#FFFFFF" d="M307.533,167.239l-6.513-18.332C303.649,154.792,305.844,160.895,307.533,167.239z"/>
				<path fill="#FFFFFF" d="M285.583,123.41l-13.822-14.762C276.753,113.183,281.385,118.104,285.583,123.41z"/>
				<path fill="#FFFFFF" d="M248.266,91.884l-17.946-7.96C236.543,86.095,242.549,88.772,248.266,91.884z"/>
				<path fill="#FFFFFF" d="M190.399,77.169c3.256,0,6.464,0.145,9.648,0.386H180.75C183.935,77.314,187.143,77.169,190.399,77.169z
					"/>
				<polygon fill="#FFFFFF" points="190.447,167.263 190.447,167.287 73.265,167.287 				"/>
				<path fill="#FFFFFF" d="M150.478,83.924l-17.946,7.96C138.249,88.772,144.255,86.095,150.478,83.924z"/>
				<path fill="#FFFFFF" d="M109.013,108.648L95.216,123.41C99.413,118.104,104.02,113.183,109.013,108.648z"/>
				<path fill="#FFFFFF" d="M79.778,148.907l-6.513,18.332C74.954,160.919,77.125,154.792,79.778,148.907z"/>
			</g>
		</g>
	</g>
	<g>
		<path fill="#FFFFFF" stroke="#FFFFFF" stroke-width="4" stroke-miterlimit="10" d="M92.195,208.068
			c3.829,7.279,7.834,14.746,12.017,22.404c0.542-1.031,1.33-2.512,2.363-4.439c1.031-1.928,2.227-4.142,3.584-6.641
			c1.357-2.497,2.811-5.2,4.359-8.106c1.548-2.904,3.123-5.852,4.725-8.839c1.602-2.987,3.19-5.92,4.766-8.799
			c1.575-2.879,3.042-5.567,4.399-8.066h1.059c0.597,5.215,1.153,10.253,1.67,15.113c0.516,4.861,1.045,9.642,1.589,14.339
			c0.542,4.698,1.086,9.343,1.629,13.932c0.543,4.59,1.141,9.139,1.793,13.646c-0.652-0.109-1.291-0.163-1.915-0.163
			c-0.625,0-1.263,0-1.915,0s-1.291,0-1.915,0c-0.625,0-1.263,0.054-1.915,0.163c-0.598-7.223-1.195-14.229-1.792-21.02
			c-0.598-6.789-1.332-13.714-2.2-20.775h-0.163c-3.748,6.844-7.428,13.646-11.04,20.408c-3.613,6.763-7.047,13.838-10.306,21.224
			h-0.733c-3.259-6.844-6.668-13.7-10.225-20.571c-3.558-6.87-7.128-13.891-10.713-21.061h-0.163
			c-0.381,3.368-0.802,7.021-1.263,10.958c-0.462,3.938-0.883,7.821-1.263,11.65c-0.38,3.829-0.707,7.441-0.978,10.836
			c-0.272,3.395-0.407,6.179-0.407,8.351c-0.87-0.109-1.82-0.163-2.852-0.163c-1.033,0-1.983,0.054-2.852,0.163
			c0.705-4.399,1.438-9.043,2.2-13.932c0.76-4.889,1.493-9.804,2.2-14.746c0.705-4.942,1.357-9.817,1.955-14.624
			c0.597-4.807,1.113-9.382,1.548-13.729h1.385C84.578,193.295,88.366,200.791,92.195,208.068z"/>
		<path fill="#FFFFFF" stroke="#FFFFFF" stroke-width="4" stroke-miterlimit="10" d="M153.747,204.076
			c2.063-0.651,4.182-0.978,6.354-0.978c1.955,0,3.749,0.285,5.382,0.855c1.632,0.57,3.027,1.385,4.184,2.444
			c1.155,1.059,2.063,2.336,2.724,3.829c0.66,1.494,0.99,3.137,0.99,4.929c0,3.096-0.055,6.18-0.162,9.247
			c-0.11,3.069-0.163,6.314-0.163,9.735c0,0.652,0.013,1.345,0.04,2.078s0.149,1.385,0.367,1.955
			c0.216,0.57,0.529,1.047,0.937,1.426c0.407,0.381,1.019,0.57,1.833,0.57c0.271,0,0.557-0.013,0.855-0.041
			c0.298-0.026,0.583-0.122,0.855-0.285v1.793c-0.598,0.272-1.344,0.488-2.24,0.651s-1.888,0.244-2.974,0.244
			c-1.765,0-3.113-0.447-4.051-1.344c-0.937-0.896-1.486-2.05-1.652-3.463c-1.949,1.955-3.871,3.396-5.766,4.318
			c-1.894,0.923-4.221,1.385-6.98,1.385c-1.354,0-2.681-0.19-3.979-0.57c-1.299-0.381-2.449-1.004-3.45-1.874
			c-1.002-0.868-1.813-1.914-2.437-3.137c-0.622-1.222-0.933-2.619-0.933-4.195c0-3.259,1.015-5.784,3.045-7.577
			c2.029-1.792,4.831-2.986,8.403-3.584c2.923-0.489,5.209-0.909,6.859-1.264c1.651-0.353,2.87-0.719,3.654-1.1
			c0.784-0.379,1.257-0.827,1.42-1.344c0.163-0.516,0.245-1.182,0.245-1.996c0-1.357-0.163-2.661-0.489-3.911
			c-0.326-1.249-0.843-2.335-1.548-3.259c-0.707-0.923-1.63-1.67-2.771-2.24s-2.525-0.855-4.154-0.855
			c-2.173,0-4.196,0.488-6.07,1.467c-1.873,0.978-3.272,2.336-4.195,4.073h-0.896v-4.236
			C149.429,205.979,151.682,204.729,153.747,204.076z M163.905,223.141c-1.217,0.218-2.447,0.448-3.689,0.692
			c-1.243,0.244-2.474,0.558-3.688,0.937c-1.218,0.381-2.298,0.896-3.244,1.549c-0.945,0.651-1.702,1.466-2.27,2.443
			s-0.852,2.229-0.852,3.748c0,2.554,0.729,4.48,2.188,5.784s3.08,1.955,4.865,1.955c2.055,0,3.932-0.57,5.636-1.71
			c1.701-1.141,3.013-2.472,3.932-3.992l0.325-12.221C166.188,222.651,165.121,222.924,163.905,223.141z"/>
		<path fill="#FFFFFF" stroke="#FFFFFF" stroke-width="4" stroke-miterlimit="10" d="M211.184,210.472
			c-1.576-2.09-3.748-3.137-6.518-3.137c-3.803,0-6.587,1.169-8.351,3.504c-1.766,2.336-2.648,5.621-2.648,9.857v6.925
			c0,2.444,0.041,5.011,0.123,7.699c0.081,2.688,0.257,5.12,0.529,7.292c-1.25-0.109-2.473-0.163-3.666-0.163
			c-1.195,0-2.418,0.054-3.667,0.163c0.271-2.172,0.448-4.604,0.53-7.292c0.081-2.688,0.122-5.255,0.122-7.699v-8.473
			c0-2.444-0.041-5.011-0.122-7.699c-0.082-2.688-0.259-5.2-0.53-7.536c1.521,0.272,2.742,0.407,3.667,0.407
			c0.434,0,0.908-0.04,1.426-0.122c0.516-0.081,1.126-0.176,1.833-0.285c-0.163,2.173-0.245,4.347-0.245,6.518h0.163
			c1.525-2.334,3.351-4.141,5.476-5.417c2.124-1.276,4.657-1.915,7.601-1.915c1.525,0,3.064,0.218,4.617,0.651
			c1.553,0.436,2.956,1.182,4.209,2.241c1.252,1.059,2.274,2.498,3.065,4.317c0.789,1.82,1.185,4.143,1.185,6.966
			c0,2.336-0.055,4.739-0.163,7.21c-0.109,2.473-0.163,5.093-0.163,7.862v5.296c0,0.869,0.013,1.725,0.041,2.566
			c0.027,0.843,0.067,1.644,0.122,2.403c-1.1-0.109-2.253-0.163-3.462-0.163c-1.156,0-2.283,0.054-3.382,0.163
			c0.108-2.823,0.23-5.729,0.367-8.718c0.135-2.986,0.203-6.056,0.203-9.206v-4.97C213.546,215.646,212.759,212.563,211.184,210.472
			z"/>
		<path fill="#FFFFFF" stroke="#FFFFFF" stroke-width="4" stroke-miterlimit="10" d="M231.388,210.472
			c0.814-1.656,1.941-3.027,3.381-4.114c1.438-1.086,3.096-1.9,4.97-2.444c1.874-0.542,3.87-0.814,5.988-0.814
			c1.031,0,2.022,0.028,2.974,0.081c0.949,0.055,2.159,0.137,3.625,0.245c1.249,0.109,2.363,0.19,3.341,0.244
			c0.978,0.055,1.765,0.081,2.362,0.081c3.041,0,5.241-0.135,6.6-0.407c-0.055,0.272-0.096,0.558-0.122,0.855
			c-0.028,0.3-0.041,0.585-0.041,0.855c0,0.272,0.013,0.558,0.041,0.855c0.026,0.3,0.067,0.585,0.122,0.855
			c-1.576-0.108-3.11-0.23-4.604-0.366c-1.494-0.135-2.974-0.23-4.44-0.285l-0.162,0.163c1.683,0.924,3.041,2.35,4.073,4.277
			c1.031,1.928,1.548,3.924,1.548,5.987c0,4.074-1.372,7.266-4.114,9.573c-2.743,2.31-6.424,3.463-11.039,3.463
			c-0.762,0-1.508-0.027-2.241-0.082c-0.732-0.054-1.48-0.081-2.24-0.081c-0.978,0-1.888,0.354-2.729,1.059
			c-0.843,0.707-1.263,1.603-1.263,2.688c0,1.413,0.339,2.444,1.019,3.097c0.679,0.651,1.941,1.005,3.788,1.059
			c1.521,0.055,3.015,0.096,4.481,0.122c1.467,0.028,2.96,0.069,4.48,0.122c2.498,0.055,4.63,0.354,6.396,0.896
			c1.765,0.544,3.204,1.277,4.318,2.2c1.112,0.924,1.928,1.981,2.444,3.177c0.516,1.194,0.773,2.498,0.773,3.911
			c0,1.9-0.366,3.829-1.1,5.784s-1.874,3.72-3.422,5.296c-1.548,1.574-3.544,2.878-5.988,3.91c-2.444,1.031-5.377,1.548-8.799,1.548
			c-5.269,0-9.424-1.046-12.465-3.137c-3.042-2.091-4.562-4.957-4.562-8.595c0-1.413,0.257-2.717,0.774-3.911
			c0.516-1.195,1.181-2.254,1.996-3.177c0.814-0.925,1.737-1.657,2.77-2.2c1.031-0.543,2.09-0.949,3.178-1.222v-0.163
			c-1.685-0.489-2.961-1.304-3.829-2.444c-0.87-1.141-1.304-2.497-1.304-4.073c0-0.923,0.176-1.765,0.529-2.525
			c0.353-0.761,0.801-1.438,1.345-2.037c0.542-0.597,1.167-1.086,1.873-1.467c0.706-0.379,1.386-0.623,2.037-0.733v-0.162
			c-2.499-1.086-4.454-2.62-5.866-4.604c-1.413-1.982-2.118-4.467-2.118-7.454C230.166,214.098,230.573,212.129,231.388,210.472z
			 M256.237,244.404c-1.902-1.304-5.052-1.955-9.451-1.955c-4.073,0-7.224,0.664-9.45,1.996c-2.228,1.33-3.341,3.733-3.341,7.21
			c0,1.846,0.312,3.422,0.938,4.726c0.624,1.304,1.466,2.362,2.525,3.178c1.06,0.814,2.322,1.411,3.788,1.792
			c1.467,0.379,3.041,0.57,4.726,0.57c1.63,0,3.23-0.218,4.807-0.651c1.575-0.436,2.974-1.088,4.196-1.956
			c1.222-0.869,2.212-1.969,2.974-3.299c0.76-1.332,1.141-2.921,1.141-4.767C259.088,247.989,258.137,245.708,256.237,244.404z
			 M252.245,208.149c-1.63-1.792-3.775-2.688-6.437-2.688c-2.933,0-5.214,0.992-6.844,2.974c-1.629,1.983-2.443,4.632-2.443,7.944
			c0,3.421,0.745,6.124,2.24,8.105c1.493,1.983,3.815,2.975,6.966,2.975c1.574,0,2.919-0.312,4.032-0.938
			c1.113-0.624,2.037-1.467,2.771-2.525c0.733-1.06,1.275-2.281,1.629-3.666c0.354-1.386,0.53-2.838,0.53-4.359
			C254.689,212.549,253.874,209.942,252.245,208.149z"/>
		<path fill="#FFFFFF" stroke="#FFFFFF" stroke-width="4" stroke-miterlimit="10" d="M271.431,213.975
			c1.167-2.579,2.701-4.67,4.603-6.272c1.9-1.602,4.033-2.771,6.396-3.504c2.363-0.733,4.712-1.1,7.048-1.1
			c2.389,0,4.752,0.366,7.088,1.1c2.334,0.733,4.452,1.902,6.354,3.504c1.9,1.603,3.435,3.693,4.604,6.272
			c1.167,2.581,1.751,5.718,1.751,9.41c0,3.694-0.584,6.831-1.751,9.41c-1.169,2.58-2.703,4.672-4.604,6.273
			c-1.902,1.603-4.021,2.729-6.354,3.381c-2.336,0.651-4.699,0.978-7.088,0.978c-2.336,0-4.685-0.326-7.048-0.978
			c-2.362-0.651-4.495-1.778-6.396-3.381c-1.901-1.602-3.436-3.693-4.603-6.273c-1.169-2.579-1.752-5.716-1.752-9.41
			C269.679,219.692,270.262,216.556,271.431,213.975z M277.459,229.984c0.407,2.118,1.1,4.006,2.078,5.662
			c0.978,1.657,2.28,2.974,3.91,3.951s3.639,1.467,6.029,1.467c2.389,0,4.399-0.489,6.028-1.467c1.63-0.978,2.933-2.294,3.911-3.951
			c0.978-1.656,1.67-3.544,2.077-5.662s0.611-4.318,0.611-6.6s-0.204-4.48-0.611-6.599s-1.1-4.005-2.077-5.662
			c-0.979-1.656-2.281-2.975-3.911-3.952c-1.629-0.978-3.64-1.466-6.028-1.466c-2.391,0-4.399,0.488-6.029,1.466
			s-2.933,2.296-3.91,3.952c-0.979,1.657-1.671,3.544-2.078,5.662s-0.611,4.317-0.611,6.599S277.052,227.866,277.459,229.984z"/>
	</g>
	<g>
		<g>
			<path fill="#FFFFFF" d="M310.917,274.91C303.819,335.129,252.473,382,190.378,382S76.937,335.129,69.839,274.91"/>
		</g>
		<g>
			<line fill="#FFFFFF" x1="310.917" y1="274.91" x2="69.839" y2="274.91"/>
		</g>
	</g>
</g>
<g id="Layer_2">
</g>
</svg>
