<?xml version="1.0" encoding="utf-8"?>
<!-- Generator: Adobe Illustrator 16.0.0, SVG Export Plug-In . SVG Version: 6.00 Build 0)  -->
<!DOCTYPE svg PUBLIC "-//W3C//DTD SVG 1.1//EN" "http://www.w3.org/Graphics/SVG/1.1/DTD/svg11.dtd">
<svg version="1.1" id="Layer_1" xmlns="http://www.w3.org/2000/svg" xmlns:xlink="http://www.w3.org/1999/xlink" x="0px" y="0px"
	 width="363.371px" height="253.632px" viewBox="0 0 363.371 253.632" enable-background="new 0 0 363.371 253.632"
	 xml:space="preserve">
<g>
	<ellipse fill="#C61A7B" cx="181.685" cy="126.816" rx="156.971" ry="109.105"/>
	<path fill="#C61A7B" d="M181.685,239.961c-42.745,0-82.982-11.604-113.3-32.678c-30.767-21.385-47.71-49.962-47.71-80.467
		c0-30.506,16.943-59.083,47.71-80.467c30.317-21.074,70.555-32.68,113.3-32.68c42.744,0,82.982,11.605,113.301,32.68
		c30.767,21.385,47.711,49.961,47.711,80.467c0,30.505-16.944,59.082-47.711,80.467
		C264.667,228.357,224.429,239.961,181.685,239.961z M181.685,21.75c-84.326,0-152.929,47.132-152.929,105.066
		c0,57.933,68.604,105.064,152.929,105.064c84.326,0,152.931-47.132,152.931-105.064C334.616,68.883,266.011,21.75,181.685,21.75z"
		/>
</g>
<path fill="#C61A7B" d="M181.685,249.838c-44.378,0-86.375-12.062-118.255-33.964c-33.939-23.317-52.631-54.945-52.631-89.058
	c0-34.113,18.691-65.741,52.631-89.058C95.31,15.856,137.307,3.794,181.685,3.794S268.06,15.856,299.94,37.759
	c33.94,23.317,52.632,54.945,52.632,89.058c0,34.112-18.691,65.74-52.632,89.058C268.06,237.777,226.063,249.838,181.685,249.838z"
	/>
<path fill="#C61A7B" stroke="#FFE91F" stroke-width="6" stroke-miterlimit="10" d="M181.685,21.75
	c-84.326,0-152.929,47.132-152.929,105.066c0,57.933,68.604,105.064,152.929,105.064c84.326,0,152.931-47.132,152.931-105.064
	C334.616,68.883,266.011,21.75,181.685,21.75z"/>
<g enable-background="new    ">
	<path fill="#FFE91F" d="M54.768,152.231l2.34-1.098c1.196-0.641,1.345-0.548,1.345-1.828v-44.612c0-1.28-0.199-1.28-1.294-1.828
		l-2.391-1.097V98.66h15.387c5.776,0,11.652,3.931,11.652,15.449c0,10.513-3.734,18.832-11.154,18.832
		c-2.042,0-3.437-0.183-4.88-0.64v16.547c0,1.554,0.198,1.92,0.946,2.104l3.784,1.005v3.382H54.768V152.231z M66.62,129.833
		c6.124,0,7.867-5.852,7.867-15.45c0-7.039-1.544-12.524-6.125-12.524h-0.299c-0.946,0-1.743,0.365-2.29,0.64v27.334H66.62z"/>
	<path fill="#FFE91F" d="M86.733,152.231l2.291-1.098c1.195-0.641,1.345-0.548,1.345-1.828v-44.612c0-1.28-0.2-1.28-1.295-1.828
		l-2.39-1.097V98.66h15.387v3.382l-3.137,1.005c-0.946,0.274-1.245,0.823-1.245,2.103v45.801c0.547,0.912,2.141,1.188,3.286,1.188
		h0.498c1.893,0,4.531-1.098,6.175-2.925c0.996-2.195,1.992-5.394,2.589-8.319l1.096-5.212h1.345l-1.792,19.655H86.733V152.231z"/>
	<path fill="#FFE91F" d="M115.81,151.957l1.992-0.641c0.647-0.274,1.096-0.823,1.395-2.102l10.606-52.018h3.586l10.656,51.926
		c0.199,1.006,0.647,1.919,1.444,2.285l1.294,0.549v3.382H132.94v-3.382l2.54-0.641c0.996-0.183,1.195-0.914,0.896-2.285
		l-2.042-9.051h-10.158l-1.793,9.325c-0.249,1.188,0.05,1.736,0.648,2.011l2.489,0.641v3.382h-9.71V151.957z M133.538,135.592
		l-4.531-22.032l-4.083,22.032H133.538z"/>
	<path fill="#FFE91F" d="M157.784,111.275v27.699c0,5.028,0.149,7.953,0.299,9.69c0.099,1.646,0.198,2.013,1.045,2.287l3.884,1.005
		v3.382h-12.1v-3.382l2.888-0.915c0.796-0.273,0.896-0.731,0.996-2.285c0.099-2.194,0.298-6.125,0.298-9.688v-33.644
		c0-1.279-0.298-1.828-1.145-2.194l-2.739-1.281v-3.29h9.959l16.632,36.566V116.12c0-3.93-0.1-8.136-0.298-10.787
		c-0.051-1.646-0.3-2.103-1.295-2.377l-3.685-1.006v-3.29h12.15v3.29l-2.839,1.006c-0.796,0.274-1.046,0.549-1.096,2.285
		c-0.1,2.194-0.249,5.76-0.249,9.507v41.688h-2.739L157.784,111.275z"/>
	<path fill="#FFE91F" d="M195.875,152.231l2.738-1.279c1.195-0.55,1.345-0.55,1.345-1.829v-47.263h-0.896
		c-3.038,0-5.328,1.188-6.174,2.193c-0.946,2.56-1.893,7.679-2.391,11.61h-1.345l0.349-18.191c0.996,0.731,2.738,1.188,4.581,1.188
		h19.769c1.046,0,3.337-0.457,4.084-1.098l0.348,18.193h-1.395c-0.448-3.932-1.542-9.142-2.39-11.61
		c-1.842-2.012-3.386-2.286-5.676-2.286h-1.445v47.263c0,1.279,0.199,1.279,1.295,1.829l2.889,1.279v3.107h-15.686V152.231z"/>
	<path fill="#FFE91F" d="M219.076,151.957l1.992-0.641c0.646-0.274,1.096-0.823,1.394-2.102l10.606-52.018h3.586l10.656,51.926
		c0.199,1.006,0.647,1.919,1.444,2.285l1.295,0.549v3.382h-13.844v-3.382l2.54-0.641c0.995-0.183,1.195-0.914,0.896-2.285
		l-2.042-9.051h-10.157l-1.793,9.325c-0.25,1.188,0.05,1.736,0.647,2.011l2.49,0.641v3.382h-9.711V151.957z M236.803,135.592
		l-4.532-22.032l-4.082,22.032H236.803z"/>
	<path fill="#FFE91F" d="M254.327,152.231l2.341-1.098c1.195-0.641,1.346-0.548,1.346-1.828v-44.612c0-1.28-0.2-1.28-1.295-1.828
		l-2.392-1.097V98.66h14.69v3.108l-2.291,1.097c-1.145,0.548-1.344,0.548-1.344,1.828v44.612c0,1.28,0.199,1.28,1.295,1.828
		l2.34,1.098v3.107h-14.69V152.231z"/>
	<path fill="#FFE91F" d="M281.714,111.275v27.699c0,5.028,0.148,7.953,0.298,9.69c0.1,1.646,0.199,2.013,1.046,2.287l3.885,1.005
		v3.382h-12.102v-3.382l2.889-0.915c0.797-0.273,0.896-0.731,0.996-2.285c0.1-2.194,0.298-6.125,0.298-9.688v-33.644
		c0-1.279-0.298-1.828-1.144-2.194l-2.74-1.281v-3.29h9.96l16.63,36.566V116.12c0-3.93-0.099-8.136-0.298-10.787
		c-0.05-1.646-0.299-2.103-1.295-2.377l-3.685-1.006v-3.29h12.15v3.29l-2.84,1.006c-0.795,0.274-1.044,0.549-1.094,2.285
		c-0.1,2.194-0.249,5.76-0.249,9.507v41.688h-2.739L281.714,111.275z"/>
</g>
</svg>
