<?xml version="1.0" encoding="utf-8"?>
<!-- Generator: Adobe Illustrator 16.0.0, SVG Export Plug-In . SVG Version: 6.00 Build 0)  -->
<!DOCTYPE svg PUBLIC "-//W3C//DTD SVG 1.1//EN" "http://www.w3.org/Graphics/SVG/1.1/DTD/svg11.dtd">
<svg version="1.1" xmlns="http://www.w3.org/2000/svg" xmlns:xlink="http://www.w3.org/1999/xlink" x="0px" y="0px"
	 width="489.75px" height="47.912px" viewBox="0 0 489.75 47.912" enable-background="new 0 0 489.75 47.912" xml:space="preserve">
<g id="Layer_2">
</g>
<g id="Layer_1">
	<g>
		<path fill="#FC0000" enable-background="new    " d="M13.86,1.333h20.342l13.628,45.225H33.87l-2.825-9.685H16.154l-2.825,9.685H0
			L13.86,1.333z M23.865,9.625l-5.119,17.001h9.938L23.865,9.625z"/>
		<path fill="#FC0000" enable-background="new    " d="M85.23,46.558L71.37,1.274h13.794l7.877,31.749l8.575-31.749h13.561
			l-14.193,45.283H85.23z"/>
		<path fill="#FC0000" enable-background="new    " d="M188.906,21.354c0,4.699-0.704,9.126-2.11,13.282
			c-1.408,4.157-3.806,7.35-7.196,9.581c-3.39,2.231-7.634,3.346-12.73,3.346c-3.39,0-6.271-0.335-8.642-1.006
			c-2.372-0.671-4.404-1.703-6.099-3.096c-1.695-1.391-3.175-3.163-4.437-5.315c-0.798-1.382-1.474-3.09-2.028-5.123
			c-0.842-3.101-1.263-6.318-1.263-9.656c0-4.166,0.532-7.957,1.596-11.373c0.531-1.776,1.368-3.399,2.509-4.871
			c1.141-1.471,2.626-2.743,4.454-3.82c1.829-1.076,3.96-1.896,6.398-2.459C161.795,0.281,164.365,0,167.069,0
			c3.479,0,6.781,0.484,9.905,1.451c2.105,0.651,3.867,1.517,5.285,2.592c1.417,1.076,2.537,2.266,3.357,3.568
			c0.819,1.304,1.496,2.854,2.027,4.649C188.485,15.144,188.906,18.176,188.906,21.354z M166.57,36.665
			c1.861,0,3.518-0.419,4.969-1.258c1.451-0.84,2.586-2.301,3.407-4.384c0.82-2.082,1.23-4.783,1.23-8.1
			c0-1.481-0.144-2.849-0.432-4.102c-0.289-1.254-0.721-2.276-1.296-3.066c-0.776-1.046-1.817-1.87-3.125-2.473
			c-1.308-0.602-2.759-0.903-4.354-0.903c-1.773,0-3.419,0.395-4.937,1.185c-1.518,0.791-2.698,1.98-3.54,3.568
			c-0.842,1.591-1.263,3.885-1.263,6.887c0,1.797,0.188,3.549,0.565,5.257c0.376,1.708,0.947,3.091,1.711,4.146
			c0.765,1.057,1.739,1.861,2.925,2.413C163.617,36.389,164.997,36.665,166.57,36.665z"/>
		<path fill="#FC0000" enable-background="new    " d="M258.647,29.765v11.462c-1.551,1.895-3.678,3.431-6.382,4.605
			c-2.703,1.174-5.717,1.763-9.041,1.763c-3.811,0-7.113-0.678-9.905-2.029c-2.792-1.353-5.008-3.135-6.647-5.347
			c-1.641-2.21-2.842-4.782-3.607-7.714c-0.764-2.933-1.147-5.928-1.147-8.989c0-3.791,0.587-7.394,1.762-10.81
			c0.864-2.567,2.065-4.685,3.606-6.354c1.54-1.668,3.063-2.902,4.57-3.702c1.507-0.799,3.224-1.415,5.152-1.851
			c1.928-0.434,4.055-0.651,6.382-0.651c3.479,0,6.343,0.429,8.592,1.288c2.249,0.858,4.47,2.306,6.664,4.339v13.624
			c-0.665-1.304-1.44-2.369-2.327-3.198c-1.285-1.186-2.848-2.118-4.687-2.8c-1.84-0.681-3.767-1.021-5.784-1.021
			c-3.146,0-5.755,0.963-7.827,2.888c-2.073,1.925-3.108,5.05-3.108,9.374c0,4.126,0.964,7.156,2.892,9.092s4.575,2.902,7.944,2.902
			c2.481,0,4.687-0.489,6.614-1.466C254.293,34.193,256.387,32.392,258.647,29.765z"/>
		<path fill="#FC0000" enable-background="new    " d="M302.96,1.333h20.342l13.628,45.225H322.97l-2.825-9.685h-14.891
			l-2.825,9.685H289.1L302.96,1.333z M312.965,9.625l-5.118,17.001h9.938L312.965,9.625z"/>
		<path fill="#FC0000" enable-background="new    " d="M369.344,46.558l0.066-45.225h21.771c3.479,0,6.176,0.198,8.093,0.593
			c1.917,0.395,3.579,1.047,4.986,1.955s2.664,2.117,3.772,3.627c1.108,1.511,1.973,3.253,2.593,5.228
			c0.864,2.783,1.296,5.686,1.296,8.707c0,3.87-0.581,7.43-1.745,10.677c-1.163,3.248-2.526,5.79-4.088,7.627
			c-1.562,1.836-3.213,3.229-4.952,4.176c-1.74,0.947-3.984,1.668-6.731,2.161c-1.817,0.317-4.698,0.475-8.642,0.475H369.344z
			 M382.507,12.291v23.604h6.215c2.371,0,4.154-0.325,5.351-0.977c1.196-0.651,2.311-2.063,3.341-4.234
			c1.03-2.173,1.545-4.72,1.545-7.643c0-1.539-0.172-3.01-0.515-4.412c-0.344-1.402-0.892-2.626-1.646-3.672
			c-0.554-0.771-1.274-1.362-2.161-1.778c-1.218-0.592-2.87-0.888-4.952-0.888H382.507z"/>
		<path fill="#FC0000" enable-background="new    " d="M489.573,21.354c0,4.699-0.704,9.126-2.11,13.282
			c-1.408,4.157-3.806,7.35-7.196,9.581c-3.39,2.231-7.634,3.346-12.73,3.346c-3.39,0-6.271-0.335-8.642-1.006
			c-2.372-0.671-4.404-1.703-6.099-3.096c-1.695-1.391-3.175-3.163-4.437-5.315c-0.798-1.382-1.474-3.09-2.028-5.123
			c-0.842-3.101-1.263-6.318-1.263-9.656c0-4.166,0.532-7.957,1.596-11.373c0.531-1.776,1.368-3.399,2.509-4.871
			c1.141-1.471,2.626-2.743,4.454-3.82c1.829-1.076,3.96-1.896,6.398-2.459C462.462,0.281,465.032,0,467.736,0
			c3.479,0,6.781,0.484,9.905,1.451c2.105,0.651,3.867,1.517,5.285,2.592c1.417,1.076,2.537,2.266,3.357,3.568
			c0.819,1.304,1.495,2.854,2.027,4.649C489.152,15.144,489.573,18.176,489.573,21.354z M467.237,36.665
			c1.861,0,3.518-0.419,4.969-1.258c1.451-0.84,2.586-2.301,3.407-4.384c0.82-2.082,1.23-4.783,1.23-8.1
			c0-1.481-0.144-2.849-0.432-4.102c-0.289-1.254-0.721-2.276-1.296-3.066c-0.776-1.046-1.817-1.87-3.125-2.473
			c-1.308-0.602-2.759-0.903-4.354-0.903c-1.773,0-3.418,0.395-4.936,1.185c-1.518,0.791-2.698,1.98-3.54,3.568
			c-0.842,1.591-1.263,3.885-1.263,6.887c0,1.797,0.188,3.549,0.565,5.257c0.376,1.708,0.947,3.091,1.711,4.146
			c0.765,1.057,1.739,1.861,2.925,2.413C464.284,36.389,465.664,36.665,467.237,36.665z"/>
	</g>
</g>
</svg>
