<?xml version="1.0" encoding="utf-8"?>
<!-- Generator: Adobe Illustrator 16.0.0, SVG Export Plug-In . SVG Version: 6.00 Build 0)  -->
<!DOCTYPE svg PUBLIC "-//W3C//DTD SVG 1.1//EN" "http://www.w3.org/Graphics/SVG/1.1/DTD/svg11.dtd">
<svg version="1.1" id="Layer_1" xmlns="http://www.w3.org/2000/svg" xmlns:xlink="http://www.w3.org/1999/xlink" x="0px" y="0px"
	 width="533.312px" height="47.912px" viewBox="0 0 533.312 47.912" enable-background="new 0 0 533.312 47.912"
	 xml:space="preserve">
<g>
	<path fill="#FC0000" d="M0.317,47.636V0.074h41.709c8.117,0,14.016,0.956,17.698,2.871c3.682,1.914,5.524,4.66,5.524,8.238
		c0,1.665-0.423,3.2-1.268,4.604c-0.846,1.404-2.058,2.597-3.636,3.574c-1.578,0.978-3.55,1.82-5.918,2.527
		c-1.616,0.478-3.983,0.947-7.102,1.404c4.735,0.458,8.455,1.145,11.161,2.061c2.705,0.916,4.64,2.028,5.806,3.34
		c1.164,1.311,1.747,3.037,1.747,5.181c0,2.56-0.677,4.708-2.029,6.442c-1.353,1.74-3.345,3.201-5.975,4.388
		c-1.917,0.896-4.519,1.604-7.807,2.137c-3.289,0.531-6.924,0.796-10.907,0.796H0.317z M22.356,37.368h12.682
		c2.93,0,5.166-0.422,6.708-1.264c1.54-0.845,2.311-1.951,2.311-3.326c0-1.288-0.724-2.328-2.171-3.119
		c-1.446-0.79-3.541-1.188-6.284-1.188H22.356V37.368z M22.469,10.871v8.521h10.427c3.569,0,6.144-0.391,7.722-1.171
		c1.577-0.78,2.367-1.855,2.367-3.229c0-1.331-0.668-2.351-2.001-3.058c-1.334-0.708-3.354-1.062-6.059-1.062L22.469,10.871
		L22.469,10.871z"/>
	<path fill="#FC0000" d="M100.476-0.02h34.494l23.11,47.655h-23.673l-4.792-10.204h-25.25l-4.792,10.204H76.972L100.476-0.02z
		 M117.441,8.718l-8.68,17.915h16.852L117.441,8.718z"/>
	<path fill="#FC0000" d="M248.993,47.636H221.6l-27.28-32.707v32.707h-20.292V-0.082h31.79l22.714,30.334V-0.082h20.46
		L248.993,47.636L248.993,47.636z"/>
	<path fill="#FC0000" d="M288.052-0.02h34.494l23.108,47.655h-23.672l-4.791-10.204h-25.252l-4.791,10.204h-22.602L288.052-0.02z
		 M305.018,8.718l-8.68,17.915h16.854L305.018,8.718z"/>
	<path fill="#FC0000" d="M436.57,47.636h-27.395l-27.279-32.707v32.707h-20.291V-0.082h31.789l22.715,30.334V-0.082h20.461V47.636
		L436.57,47.636z"/>
	<path fill="#FC0000" d="M475.629-0.02h34.494l23.109,47.655H509.56l-4.79-10.204h-25.252l-4.791,10.204h-22.602L475.629-0.02z
		 M492.594,8.718l-8.679,17.915h16.852L492.594,8.718z"/>
</g>
</svg>
