<?xml version="1.0" encoding="utf-8"?>
<!-- Generator: Adobe Illustrator 16.0.0, SVG Export Plug-In . SVG Version: 6.00 Build 0)  -->
<!DOCTYPE svg PUBLIC "-//W3C//DTD SVG 1.1//EN" "http://www.w3.org/Graphics/SVG/1.1/DTD/svg11.dtd">
<svg version="1.1" id="Layer_1" xmlns="http://www.w3.org/2000/svg" xmlns:xlink="http://www.w3.org/1999/xlink" x="0px" y="0px"
	 width="448.667px" height="134.5px" viewBox="0 0 448.667 134.5" enable-background="new 0 0 448.667 134.5" xml:space="preserve">
<g>
	<path d="M22.813,2.438h19.853L23.51,111.107h51.025l-3.483,20.549H0L22.813,2.438z"/>
	<path d="M136.361,134.094c-36.571,0-45.279-27.167-45.279-51.548C91.082,42.84,109.368,0,154.646,0
		c32.043,0,47.194,19.156,47.194,49.98C201.841,76.277,188.257,134.094,136.361,134.094z M109.542,84.81
		c0,21.072,11.842,30.825,28.212,30.825c31.347,0,43.537-34.481,43.537-63.913c0-18.111-10.623-30.128-28.038-30.128
		C120.862,21.594,109.542,57.643,109.542,84.81z"/>
	<path d="M262.097,134.094c-36.572,0-45.279-27.167-45.279-51.548C216.818,42.84,235.104,0,280.382,0
		c32.043,0,47.194,19.156,47.194,49.98C327.577,76.277,313.993,134.094,262.097,134.094z M235.278,84.81
		c0,21.072,11.842,30.825,28.212,30.825c31.347,0,43.537-34.481,43.537-63.913c0-18.111-10.623-30.128-28.038-30.128
		C246.597,21.594,235.278,57.643,235.278,84.81z"/>
	<path d="M360.84,2.438h19.853l-10.797,60.604l0.348,0.349l51.723-60.952h26.471l-56.772,62.693l39.009,66.525h-23.336
		l-37.616-66.351h-0.348l-11.843,66.351h-19.853L360.84,2.438z"/>
</g>
<circle cx="276" cy="89" r="20"/>
<circle cx="148" cy="89" r="20"/>
</svg>
