<?xml version="1.0" encoding="utf-8"?>
<!-- Generator: Adobe Illustrator 16.0.0, SVG Export Plug-In . SVG Version: 6.00 Build 0)  -->
<!DOCTYPE svg PUBLIC "-//W3C//DTD SVG 1.1//EN" "http://www.w3.org/Graphics/SVG/1.1/DTD/svg11.dtd">
<svg version="1.1" xmlns="http://www.w3.org/2000/svg" xmlns:xlink="http://www.w3.org/1999/xlink" x="0px" y="0px"
	 width="560.333px" height="47.912px" viewBox="0 0 560.333 47.912" enable-background="new 0 0 560.333 47.912"
	 xml:space="preserve">
<g id="Layer_2">
</g>
<g id="Layer_1">
	<g>
		<g>
			<path d="M1403.794-938.957c-3.308,0.284-4.033-1.756-4.033-4.288c0-4.05,2.278-2.766,2.616-5.154
				c1.426-10.065,2.091-20.479,2.144-30.686c0.021-4.029-2.434-1.838-2.434-5.815c0-3.977,2.116-5.04,3.706-5.099
				c3.651-0.136,7.387-1.131,11.051-2.361c4.417-1.482,7.307,1.273,7.307,9.155c0,7.23-3.524,11.738-3.524,12.823
				c0,2.024,3.96,0.309,3.96,10.866c0,5.352-1.708,16.312-9.051,18.371C1410.839-939.829,1408.49-939.36,1403.794-938.957z
				 M1411.282-949.06c0,1.446,0.545,1.187,1.163,1.042c2.581-0.602,2.87-6.156,2.87-10.061c0-3.833-0.542-5.389-2.541-4.913
				c-1.272,0.303-1.021,0.524-1.129,3.15C1411.5-955.528,1411.428-953.372,1411.282-949.06z M1412.19-973.268
				c-0.073,1.68-0.252,3.031,0.766,2.786c2.326-0.561,2.65-6.406,2.65-9.877c0-2.893-0.398-4.355-1.925-3.97
				c-1.127,0.285-0.943,0.594-1.089,2.869C1412.433-978.182,1412.351-976.544,1412.19-973.268z"/>
			<path d="M1435.563-949.366c-1.636,0.853-3.306,2.336-4.941,3.109c-2.326,1.099-3.054-0.488-3.054-2.874
				c0-4.339,2.348-3.399,3.054-8.335c1.341-9.381,1.995-19.341,2.109-28.858c0.067-5.572-2.255-2.456-2.255-6.433
				c0-4.193,1.928-6.044,3.669-6.788c0.908-0.388,1.834-0.833,2.765-1.293c0.902-0.446,1.891-0.948,2.836-1.474
				c2.283-1.271,3.425-1.934,5.707-3.298c1.309-0.782,2.107-1.491,2.652-2.042c0.545-0.551,0.87-0.971,1.233-1.196
				c1.235-0.766,3.053,2.062,3.053,8.86c0,2.675-0.652,5.986-2.179,6.939c-2.943,1.838-1.269-6.31-5.595-3.748
				c-3.672,2.174-3.254,3.208-3.601,11.052c-0.127,2.863-0.399,3.632,0.801,2.945c2.145-1.228,0.909-7.161,3.162-8.501
				c2.217-1.318,2.435,4.319,2.435,7.573c0,3.833-0.655,13.65-3.199,15.15c-2.69,1.586-0.581-6.942-2.835-5.658
				c-1.526,0.87-1.126,7.362-1.126,9.604c0,4.556,0.034,4.411,2.434,3.022c5.671-3.284,4.365-11.896,7.309-13.73
				c1.744-1.087,2.179,1.448,2.179,4.413c0,6.726-2.508,13.946-3.853,14.772c-0.218,0.134-0.479,0.101-0.834,0.223
				c-0.412,0.142-1.056,0.427-2.219,1.121C1441.39-952.496,1439.446-951.389,1435.563-949.366z"/>
			<path d="M1480.957-1017.036c0,4.193-1.345,8.524-3.525,9.949c-3.307,2.16-2.544-8.172-5.814-5.997
				c-4.215,2.803-5.668,17.879-5.668,24.243c0,4.41,0.799,10.384,3.597,8.519c1.417-0.945,2.326-3.501,2.326-6.32
				c0-2.098-0.149-2.143-1.129-1.998c-0.834,0.124-1.413-0.576-1.413-2.384c0-5.424,5.267-9.147,7.701-10.741
				c2.254-1.475,6.253-3.59,6.253,1.689c0,2.313-0.782,3.447-1.71,4.484c-1.019,1.137-1.01,2.178-1.343,4.261
				c-1.881,11.766-7.669,19.843-12.938,23.36c-6.613,4.414-11.554,0.646-11.484-13.095c0.071-14.088,3.794-33.688,15.298-42.165
				c1.975-1.455,3.6-0.505,4.29-0.96c0.472-0.311,1.054-1.344,1.635-1.725c0.836-0.547,1.701,0.217,2.217,1.015
				C1480.278-1023.306,1480.957-1020.145,1480.957-1017.036z"/>
			<path d="M1490.516-1021.286c0.036-1.106,0.182-2.205,0.182-3.724c0-3.543-2.546,0.294-2.546-4.044
				c0-0.94-0.396-4.659,7.092-8.832c5.998-3.342,7.921-3.204,7.921,0.629c0,4.556-2.808,2.923-3.161,7.441
				c-0.111,1.427-0.292,2.97-0.437,4.419c-0.566,8.278-0.851,12.419-1.418,20.705c-0.109,1.649-0.254,3.246-0.254,4.909
				c0,5.857,2.579,1.324,2.579,5.808c0,5.352-4.942,7.761-6.833,8.837c-6.07,3.458-8.284,3.938-8.284-0.401
				c0-4.772,3.196-2.902,3.669-10.996C1489.622-1006.438,1489.92-1011.389,1490.516-1021.286z"/>
			<path d="M1530.283-1050.481c3.235-0.333,5.489,0.219,5.489,4.413c0,4.483-3.14,1.64-3.416,6.476
				c-0.033,0.578-0.509,4.591-0.654,6.843c-0.596,8.261-0.896,12.396-1.491,20.673c-0.836,11.512-2.145,13.676-4.253,14.051
				c-2.29,0.408-3.526-3.618-4.653-6.66c-2.123-5.827-3.184-8.694-5.307-14.355c-0.29-0.771-1.309-3.681-1.926-3.461
				c-0.8,0.286-0.906,4.675-0.982,5.709c-0.17,2.299-0.545,10.326-0.545,11.339c0,4.845,2.545,2.626,2.545,6.025
				c0,4.121-3.381,5.489-4.835,6.079c-1.563,0.634-6.361,2.746-6.361-1.81c0-3.615,2.249-3.382,2.691-6.31
				c1.549-10.242,2.265-20.866,2.723-31.333c0.244-5.575-2.906-0.329-2.906-5.391c0-5.062,2.944-6.739,7.124-8.261
				c3.162-1.151,3.745-0.586,6.107,6.276c1.644,4.431,2.464,6.67,4.107,11.206c0.218,0.604,1.601,4.666,2.072,4.581
				c1.236-0.223,1.191-12.145,1.2-12.859c0.107-8.606-2.944-1.553-2.944-7.555
				C1524.068-1046.396,1523.886-1049.822,1530.283-1050.481z"/>
			<path d="M1399.25-929.723c0-1.446-0.001-2.168-0.001-3.614c51.936-5.422,85.001-55.257,136.001-60.74c0,1.446,0,2.168,0,3.614
				C1484.25-984.977,1451.185-935.145,1399.25-929.723z"/>
		</g>
	</g>
	<g>
		<path fill="#FC0000" enable-background="new    " d="M19.95,33.384V47.75H0V0h32.432c6.016,0,10.609,0.317,13.785,0.951
			c3.174,0.637,5.714,1.542,7.619,2.718c1.905,1.177,3.408,2.737,4.511,4.685c1.103,1.948,1.655,4.116,1.655,6.511
			c0,3.52-1.095,6.735-3.283,9.652c-2.189,2.913-5.021,5.037-8.497,6.369c-4.378,1.667-9.959,2.498-16.742,2.498H19.95z
			 M19.95,11.618v11.272h8.471c4.544,0,7.636-0.598,9.273-1.796c1.637-1.197,2.456-2.638,2.456-4.325
			c0-1.936-1.22-3.404-3.659-4.402c-1.17-0.501-3.393-0.749-6.667-0.749H19.95z"/>
		<path fill="#FC0000" enable-background="new    " d="M75.289,47.75V0H95.74v35.914h26.366V47.75H75.289z"/>
		<path fill="#FC0000" enable-background="new    " d="M156.843,0.062h30.677l20.551,47.688h-21.053l-4.26-10.212h-22.457
			L156.04,47.75h-20.101L156.843,0.062z M171.93,8.806l-7.719,17.926h14.988L171.93,8.806z"/>
		<path fill="#FC0000" enable-background="new    " d="M288.924,47.75h-24.362l-24.26-32.729V47.75h-18.046V0h28.271l20.201,30.354
			V0h18.196V47.75z"/>
		<path fill="#FC0000" enable-background="new    " d="M364.713,13.022h-19.499V47.75h-20.302V13.022h-19.599V0h59.399V13.022z"/>
		<path fill="#FC0000" enable-background="new    " d="M386.818,0.062h30.677l20.552,47.688h-21.053l-4.261-10.212h-22.457
			l-4.26,10.212h-20.101L386.818,0.062z M401.906,8.806l-7.719,17.926h14.988L401.906,8.806z"/>
		<path fill="#FC0000" enable-background="new    " d="M472.582,47.75h-20.201V0h20.201V47.75z"/>
		<path fill="#FC0000" enable-background="new    " d="M559.5,47.75h-24.361l-24.262-32.729V47.75h-18.044V0h28.271l20.201,30.354V0
			H559.5V47.75z"/>
	</g>
</g>
</svg>
