<?xml version="1.0" encoding="utf-8"?>
<!-- Generator: Adobe Illustrator 16.0.0, SVG Export Plug-In . SVG Version: 6.00 Build 0)  -->
<!DOCTYPE svg PUBLIC "-//W3C//DTD SVG 1.1//EN" "http://www.w3.org/Graphics/SVG/1.1/DTD/svg11.dtd">
<svg version="1.1" id="Layer_1" xmlns="http://www.w3.org/2000/svg" xmlns:xlink="http://www.w3.org/1999/xlink" x="0px" y="0px"
	 width="200px" height="200px" viewBox="0 0 200 200" enable-background="new 0 0 200 200" xml:space="preserve">
<g>
	<g>
		<path d="M2.316,42.465c7.851,15.471,22.144,26.839,35.197,37.881c13.821,11.693,28.435,22.282,43.782,31.881
			c30.508,19.082,63.423,33.968,96.402,48.19c7.491,3.231,14.632-4.406,17.796-10.357c2.658-5,6.073-17.338-1.364-20.545
			c-31.458-13.567-62.697-27.804-92.068-45.529c-14.604-8.813-28.614-18.592-41.868-29.33c-6.199-5.022-12.012-10.471-17.907-15.84
			c-5.676-5.169-12.667-11.107-16.111-17.894C17.739,4.297-3.804,30.403,2.316,42.465L2.316,42.465z"/>
	</g>
</g>
<g>
	<g>
		<path d="M158.958,4.13C107.991,53.452,67.542,111.917,23.437,167.12c-4.396,5.501-8.419,16.178-3.416,22.565
			c5.167,6.596,13.841,0.082,17.523-4.526c21.395-26.778,41.854-54.288,63.105-81.179c21.672-27.423,42.406-52.083,66.56-75.457
			c5.709-5.524,10.539-14.853,7.804-22.968C172.412-2.16,163.703-0.461,158.958,4.13L158.958,4.13z"/>
	</g>
</g>
</svg>
