<?xml version="1.0" encoding="utf-8"?>
<!-- Generator: Adobe Illustrator 16.0.0, SVG Export Plug-In . SVG Version: 6.00 Build 0)  -->
<!DOCTYPE svg PUBLIC "-//W3C//DTD SVG 1.1//EN" "http://www.w3.org/Graphics/SVG/1.1/DTD/svg11.dtd">
<svg version="1.1" id="Layer_1" xmlns="http://www.w3.org/2000/svg" xmlns:xlink="http://www.w3.org/1999/xlink" x="0px" y="0px"
	 width="175.322px" height="114.583px" viewBox="0 0 175.322 114.583" enable-background="new 0 0 175.322 114.583"
	 xml:space="preserve">
<g>
	<path d="M15.979,94.22c1.725-0.265,2.875-2.37,4.025-4.89c0.711-1.557,1.86-4.897,3.078-5.162c1.387-0.299,1.995,1.517,1.995,4.09
		c0,3.589-1.465,10.589-3.483,11.322c-0.698,0.254-0.726,0.283-1.388,1.09c-2.644,3.221-4.598,5.025-7.642,5.391
		c-5.615,0.672-10.3-6.659-9.776-17.744c0.501-10.604,2.53-28.883,14.206-32.247c2.015-0.58,3.686,0.9,4.058,0.826
		c0.406-0.081,0.981-0.878,1.455-0.979c1.961-0.415,3.551,5.63,3.551,9.83c0,3.791-1.048,7.444-3.111,7.889
		c-3.146,0.678-2.673-8.282-5.716-7.782c-3.382,0.556-4.871,13.755-4.871,18.7C12.358,89.157,13.239,94.638,15.979,94.22z"/>
	<path d="M29.036,89.368c-0.048-9.072,2.679-22.361,11.5-26.002c3.889-1.605,7.676,1.736,7.71,10.573
		c0.035,9.136-2.643,23.032-11.499,26.578C32.917,102.051,29.083,98.192,29.036,89.368z M37.424,78.021
		c-0.39,3.758-0.676,8.479-0.676,12.203c0,1.56,0.203,3.054,1.082,2.767c1.42-0.466,1.694-4.629,1.895-6.728
		c0.341-3.563,0.812-8.945,0.812-12.397c0-1.56-0.17-3.26-1.117-2.939C37.999,71.407,37.648,75.855,37.424,78.021z"/>
	<path d="M72.059,55.234c0.069,0.44,0.067,1.253,0.372,1.108c0.542-0.258,2.91-7.479,6.529-9.241
		c2.063-1.005,3.382,1.059,3.382,5.121c0,3.859-1.116,14.022-1.116,17.069c0,3.453,1.793-0.271,1.793,2.707
		c0,5.012-5.08,10.566-6.899,11.627c-1.535,0.894-2.422-0.854-2.504-3.604c-0.17-5.714,1.117-12.186,1.117-17.604
		c0-1.219-0.169-2.084-0.846-1.76c-2.604,1.248-2.633,10.877-2.806,14.137c-0.199,3.748-0.441,7.25-0.981,8.724
		c-1.05,2.862-3.552,4.642-5.04,5.323c-1.421,0.65-2.03,0.045-2.03-2.936c0-5.351,1.286-12.435,1.286-18.259
		c0-1.422-0.067-2.474-0.913-2.091c-2.368,1.072-2.654,12.729-2.773,15.803c-0.262,6.732-0.105,8.818-5.75,12.031
		c-1.317,0.749-2.232,0.253-2.232-2.727c0-2.506,1.354-13.965,1.354-19.654c0-1.285-0.103-2.191-0.812-1.898
		c-0.744,0.309-1.623,0.665-1.623-1.436c0-2.504,1.688-4.694,2.637-6.03c1.575-2.218,3.418-4.627,5.244-5.429
		c1.218-0.534,1.776,0.913,1.826,3.054c0.014,0.595,0.069,2.203,0.508,2.007c0.812-0.363,3.55-7.69,6.73-9.177
		C70.098,51.36,71.597,52.286,72.059,55.234z"/>
	<path d="M104.802,42.22c0,8.195-4.564,16.736-8.387,18.601c-0.475,0.23-1.32,0.643-1.32,2.064c0,1.963,1.219,2.449,2.064,2.037
		c2.436-1.186,4.293-5.938,5.376-6.455c0.71-0.34,1.354,0.845,1.354,2.197c0,3.59-2.265,6.93-3.654,8.865
		c-1.867,2.602-3.721,4.51-5.853,5.553c-4.126,2.021-7.726,0.187-7.542-8.957c0.21-10.452,3.86-24.478,13.021-29.602
		C102.298,35.163,104.802,36.261,104.802,42.22z M95.026,54.046c0,0.812,0.136,1.831,0.609,1.6c0.947-0.463,2.616-6.292,2.504-9.48
		c-0.031-0.861-0.236-1.986-0.777-1.724C95.976,45.116,95.026,51.878,95.026,54.046z"/>
	<path d="M124.048,25.606c0.034-1.029,0.171-2.03,0.171-3.452c0-3.318-2.366-0.179-2.366-4.241c0-0.881-0.375-4.369,6.594-7.051
		c5.58-2.148,7.373-1.804,7.373,1.786c0,4.266-2.613,2.342-2.942,6.519c-0.104,1.321-0.271,2.738-0.405,4.074
		c-0.527,7.668-0.791,11.504-1.32,19.176c-0.102,1.526-0.235,2.998-0.235,4.557c0,5.484,2.401,1.631,2.401,5.828
		c0,5.012-4.601,6.504-6.359,7.195c-5.648,2.217-7.712,2.223-7.712-1.842c0-4.469,2.979-2.136,3.418-9.632
		C123.218,39.355,123.493,34.771,124.048,25.606z"/>
	<path d="M150.837,30.372c0-1.219-0.302-2.099-0.945-1.943c-2.469,0.595-2.916,11.032-3.111,15.21
		c-0.352,7.524-1.094,9.429-5.447,11.239c-1.216,0.506-2.469,0.234-2.469-2.744c0-3.387,1.506-14.088,1.455-19.896
		c-0.012-1.344-0.236-2.098-0.947-1.871c-0.135,0.043-0.204,0.065-0.339,0.109c-0.677,0.217-0.948-0.504-0.948-1.857
		c0-1.896,1.01-3.576,1.727-4.619c1.431-2.084,4.531-5.096,6.155-5.537c2.063-0.561,1.149,5.649,2.197,5.383
		c0.846-0.216,3.62-6.937,6.562-7.525c1.963-0.393,3.855,1.601,3.855,5.866c0,4.809-1.184,13.135-1.184,17.266
		c0,2.709,1.625,0.741,1.625,3.384c0,4.943-5.107,8.781-7.035,9.212c-1.488,0.333-2.437-0.923-2.437-3.972
		c0-3.453,0.61-7.998,0.882-11.584C150.597,34.042,150.675,32.821,150.837,30.372z"/>
	<path d="M170.933,42.491c-0.104,4.742-1.963,8.003-4.026,8.176s-3.79-2.794-3.687-7.545c0.098-4.548,1.961-7.757,4.025-7.923
		C169.308,35.034,171.031,37.952,170.933,42.491z M173.062,7.823c-0.058,6.966-1.918,14.145-3.482,20.108
		c-0.342,1.3-0.982,3.036-1.828,3.1c-0.913,0.068-1.277-1.599-1.555-3.054c-1.012-5.298-1.625-12.302-1.625-18.124
		c0-5.959,1.761-9.023,4.703-9.196C171.644,0.518,173.103,3.021,173.062,7.823z"/>
	<path d="M1.739,114.268c0-1.354,0-2.032,0-3.387c62-4.27,110-52.617,173-56.886c0,1.354,0,2.032,0,3.387
		C111.739,61.65,63.739,109.999,1.739,114.268z"/>
</g>
</svg>
