<?xml version="1.0" encoding="utf-8"?>
<!-- Generator: Adobe Illustrator 16.0.0, SVG Export Plug-In . SVG Version: 6.00 Build 0)  -->
<!DOCTYPE svg PUBLIC "-//W3C//DTD SVG 1.1//EN" "http://www.w3.org/Graphics/SVG/1.1/DTD/svg11.dtd">
<svg version="1.1" xmlns="http://www.w3.org/2000/svg" xmlns:xlink="http://www.w3.org/1999/xlink" x="0px" y="0px"
	 width="381.667px" height="249.333px" viewBox="0 0 381.667 249.333" enable-background="new 0 0 381.667 249.333"
	 xml:space="preserve">
<g id="Layer_2">
</g>
<g id="Layer_1">
	<g>
		<path fill="#FFFFFF" d="M378.333,234.668c0,6.627-5.373,12-12,12h-352c-6.627,0-12-5.373-12-12v-219c0-6.627,5.373-12,12-12h352
			c6.627,0,12,5.373,12,12V234.668z"/>
		<path d="M366.833,248.668h-352c-7.995,0-14.5-6.505-14.5-14.5v-219c0-7.995,6.505-14.5,14.5-14.5h352
			c7.995,0,14.5,6.505,14.5,14.5v219C381.333,242.163,374.828,248.668,366.833,248.668z M14.833,5.668c-5.238,0-9.5,4.262-9.5,9.5
			v219c0,5.238,4.262,9.5,9.5,9.5h352c5.238,0,9.5-4.262,9.5-9.5v-219c0-5.238-4.262-9.5-9.5-9.5H14.833z"/>
	</g>
	<g>
		<path fill="#FF0000" d="M72.679,100.439H60.183l2.909-11.315h40.829l-2.909,11.315H88.623l-11.096,43.161H61.583L72.679,100.439z"
			/>
		<path fill="#FF0000" d="M149.271,105.693c0,12.124-4.956,25.864-14.651,33.139c-4.74,3.556-10.234,5.415-17.129,5.415
			c-16.59,0-19.067-12.043-19.067-18.024c0-11.396,4.955-25.137,15.082-32.492c4.417-3.233,9.911-5.253,16.913-5.253
			C147.009,88.478,149.271,99.389,149.271,105.693z M124.386,100.359c-6.14,4.607-9.587,19.317-9.587,27.4
			c0,2.344,0.539,6.062,5.063,6.062c1.185,0,2.478-0.485,3.555-1.293c6.571-4.93,9.48-22.308,9.48-28.127
			c0-2.101-0.646-5.496-4.525-5.496C126.972,98.904,125.679,99.389,124.386,100.359z"/>
		<path fill="#FF0000" d="M163.702,89.932c3.771-0.565,9.265-1.051,15.189-1.051c9.157,0,14.975,2.344,18.637,5.658
			c4.309,3.96,5.602,9.133,5.602,14.548c0,14.306-8.834,25.541-16.051,29.744c-5.925,3.556-12.281,5.011-22.73,5.011
			c-4.309,0-10.45-0.404-14.004-1.132L163.702,89.932z M167.904,133.498c0.861,0.081,2.046,0.242,3.339,0.242
			c3.986,0,8.833-2.99,11.311-7.921c2.586-5.253,4.31-10.588,4.31-18.024c0-3.88-1.293-9.376-7.218-9.376
			c-1.078,0-2.047,0-2.585,0.162L167.904,133.498z"/>
		<path fill="#FF0000" d="M218.103,132.608l-5.279,10.992h-15.404l29.086-54.477h18.744v54.477h-15.404l0.537-10.992H218.103z
			 M230.921,123.96l0.646-11.154c0.217-2.991,0.754-9.295,0.971-13.336h-0.217c-1.615,4.041-4.094,10.507-5.387,13.255l-5.17,11.235
			H230.921z"/>
		<path fill="#FF0000" d="M256.667,143.601l5.062-19.883l-6.787-34.593h17.021l0.754,11.72c0.432,6.547,0.215,10.184,0.107,12.366
			h0.217c1.508-3.476,3.123-7.274,5.494-11.477l7.109-12.609h16.482l-24.67,34.755l-4.848,19.722H256.667z"/>
		<path fill="#FF0000" d="M298.14,137.296c0-3.637,4.523-7.921,9.588-7.921c5.709,0,8.941,3.072,8.941,6.79
			c0,4.85-4.85,8.083-10.02,8.083C301.263,144.247,298.14,141.095,298.14,137.296z M303.417,124.768l7.219-35.644h17.883
			l-11.096,35.644H303.417z"/>
	</g>
	<g>
		<path d="M122.444,171.213l-0.196-11.312h2.302l-0.098,5.052c-0.033,1.326-0.098,2.584-0.164,3.659h0.033
			c0.359-1.141,0.751-2.265,1.241-3.575l1.943-5.136h2.367l-0.082,5.052c-0.016,1.31-0.065,2.467-0.147,3.608h0.033
			c0.343-1.174,0.735-2.382,1.126-3.575l1.812-5.085h2.334l-4.571,11.312h-2.433l-0.049-4.381c0-1.309,0.049-2.5,0.131-3.743h-0.033
			c-0.392,1.192-0.784,2.434-1.355,3.86l-1.764,4.264H122.444z"/>
		<path d="M141.749,166.363h-3.461l-0.539,2.854h3.902l-0.375,1.996h-6.155l2.09-11.312h5.943l-0.375,1.997h-3.657l-0.49,2.501
			h3.478L141.749,166.363z"/>
		<path d="M151.109,168.359l-1.192,2.854h-2.368l5.094-11.312h2.825l0.931,11.312h-2.319l-0.146-2.854H151.109z M153.885,166.615
			l-0.13-2.451c-0.033-0.638-0.049-1.645-0.082-2.366h-0.032c-0.278,0.738-0.604,1.712-0.882,2.366l-1.012,2.451H153.885z"/>
		<path d="M165.465,170.961c-0.522,0.219-1.355,0.404-2.481,0.404c-2.874,0-4.359-2.049-4.359-4.516
			c0-2.602,1.012-4.633,2.563-5.841c1.094-0.856,2.384-1.259,3.804-1.259c1.012,0,1.812,0.235,2.073,0.402l-0.62,1.931
			c-0.294-0.151-0.882-0.302-1.682-0.302c-0.833,0-1.666,0.318-2.27,0.89c-0.865,0.839-1.437,2.198-1.437,3.843
			c0,1.696,0.816,2.836,2.498,2.836c0.653,0,1.323-0.117,1.796-0.318L165.465,170.961z"/>
		<path d="M174.645,170.961c-0.522,0.219-1.355,0.404-2.481,0.404c-2.874,0-4.359-2.049-4.359-4.516
			c0-2.602,1.012-4.633,2.563-5.841c1.094-0.856,2.384-1.259,3.804-1.259c1.012,0,1.812,0.235,2.073,0.402l-0.62,1.931
			c-0.294-0.151-0.882-0.302-1.682-0.302c-0.833,0-1.666,0.318-2.27,0.89c-0.865,0.839-1.437,2.198-1.437,3.843
			c0,1.696,0.816,2.836,2.498,2.836c0.653,0,1.323-0.117,1.796-0.318L174.645,170.961z"/>
		<path d="M183.498,166.363h-3.461l-0.539,2.854h3.902l-0.375,1.996h-6.155l2.09-11.312h5.943l-0.375,1.997h-3.657l-0.49,2.501
			h3.478L183.498,166.363z"/>
		<path d="M187.73,160.102c0.686-0.168,1.714-0.269,2.661-0.269c0.915,0,2.041,0.168,2.809,0.789
			c0.652,0.52,1.028,1.326,1.028,2.282c0,1.46-0.669,2.568-1.47,3.239c-0.849,0.706-2.073,1.024-3.298,1.024
			c-0.31,0-0.604-0.033-0.816-0.051l-0.768,4.096h-2.204L187.73,160.102z M188.988,165.221c0.212,0.033,0.424,0.067,0.751,0.067
			c1.437,0,2.22-1.108,2.22-2.199c0-0.99-0.637-1.393-1.518-1.393c-0.359,0-0.637,0.017-0.816,0.066L188.988,165.221z"/>
		<path d="M198.478,161.965h-2.612l0.392-2.064h7.494l-0.392,2.064h-2.629l-1.698,9.248h-2.27L198.478,161.965z"/>
		<path d="M209.732,160.102c0.686-0.168,1.714-0.269,2.661-0.269c0.914,0,2.041,0.168,2.809,0.789
			c0.652,0.52,1.028,1.326,1.028,2.282c0,1.46-0.669,2.568-1.47,3.239c-0.849,0.706-2.073,1.024-3.298,1.024
			c-0.31,0-0.604-0.033-0.815-0.051l-0.768,4.096h-2.205L209.732,160.102z M210.989,165.221c0.213,0.033,0.425,0.067,0.752,0.067
			c1.436,0,2.22-1.108,2.22-2.199c0-0.99-0.637-1.393-1.519-1.393c-0.359,0-0.637,0.017-0.816,0.066L210.989,165.221z"/>
		<path d="M219.189,168.359l-1.192,2.854h-2.367l5.094-11.312h2.825l0.931,11.312h-2.318l-0.146-2.854H219.189z M221.965,166.615
			l-0.13-2.451c-0.033-0.638-0.05-1.645-0.082-2.366h-0.033c-0.277,0.738-0.604,1.712-0.881,2.366l-1.013,2.451H221.965z"/>
		<path d="M227.585,171.213l0.834-4.531l-1.829-6.781h2.416l0.556,2.819c0.18,1.024,0.244,1.611,0.326,2.165h0.033
			c0.31-0.638,0.619-1.309,1.045-2.132l1.551-2.853h2.596l-4.441,6.747l-0.832,4.565H227.585z"/>
		<path d="M237.011,160.102c0.686-0.168,1.714-0.269,2.66-0.269c0.915,0,2.041,0.168,2.809,0.789
			c0.653,0.52,1.029,1.326,1.029,2.282c0,1.46-0.67,2.568-1.47,3.239c-0.849,0.706-2.073,1.024-3.298,1.024
			c-0.311,0-0.604-0.033-0.816-0.051l-0.768,4.096h-2.204L237.011,160.102z M238.268,165.221c0.212,0.033,0.425,0.067,0.751,0.067
			c1.437,0,2.221-1.108,2.221-2.199c0-0.99-0.637-1.393-1.519-1.393c-0.359,0-0.637,0.017-0.816,0.066L238.268,165.221z"/>
		<path d="M246.468,168.359l-1.192,2.854h-2.368l5.095-11.312h2.825l0.93,11.312h-2.318l-0.146-2.854H246.468z M249.243,166.615
			l-0.131-2.451c-0.033-0.638-0.049-1.645-0.082-2.366h-0.032c-0.278,0.738-0.604,1.712-0.882,2.366l-1.012,2.451H249.243z"/>
		<path d="M256.007,159.901h2.253l-1.714,9.281h3.771l-0.376,2.031h-6.024L256.007,159.901z"/>
	</g>
	<g>
		<path fill="none" stroke="#FF0000" stroke-width="4" stroke-miterlimit="10" d="M50.543,24.91
			c3.771-0.565,9.265-1.051,15.189-1.051c9.157,0,14.974,2.344,18.637,5.658c4.309,3.96,5.602,9.133,5.602,14.548
			c0,14.306-8.833,25.541-16.051,29.744c-5.925,3.556-12.281,5.011-22.73,5.011c-4.309,0-10.45-0.404-14.004-1.132L50.543,24.91z
			 M54.745,68.476c0.861,0.081,2.046,0.242,3.339,0.242c3.986,0,8.833-2.99,11.311-7.921c2.586-5.253,4.31-10.588,4.31-18.024
			c0-3.88-1.293-9.376-7.218-9.376c-1.078,0-2.047,0-2.585,0.162L54.745,68.476z"/>
		<path fill="none" stroke="#FF0000" stroke-width="4" stroke-miterlimit="10" d="M146.31,40.671
			c0,12.124-4.956,25.864-14.651,33.139c-4.74,3.556-10.234,5.415-17.129,5.415c-16.59,0-19.067-12.043-19.067-18.024
			c0-11.396,4.955-25.137,15.082-32.492c4.417-3.233,9.911-5.253,16.913-5.253C144.048,23.456,146.31,34.367,146.31,40.671z
			 M121.425,35.337c-6.14,4.607-9.587,19.317-9.587,27.4c0,2.344,0.539,6.062,5.063,6.062c1.185,0,2.478-0.485,3.555-1.293
			c6.571-4.93,9.48-22.308,9.48-28.127c0-2.101-0.646-5.496-4.525-5.496C124.01,33.882,122.718,34.367,121.425,35.337z"/>
		<path fill="none" stroke="#FF0000" stroke-width="4" stroke-miterlimit="10" d="M149.86,78.579l13.897-54.477h14.436l4.74,18.267
			c2.047,7.921,3.232,13.175,3.663,17.458h0.215c0.862-6.062,2.262-16.65,4.848-26.915l2.262-8.81h13.574l-13.897,54.477h-13.466
			l-5.063-16.812c-2.585-8.486-3.017-11.72-3.771-18.59h-0.215c-0.862,5.416-2.586,15.357-5.279,26.026l-2.37,9.376H149.86z"/>
		<path fill="none" stroke="#FF0000" stroke-width="4" stroke-miterlimit="10" d="M223.649,67.586l-5.279,10.992h-15.404
			l29.086-54.477h18.744v54.477h-15.404l0.539-10.992H223.649z M236.469,58.938l0.646-11.154c0.216-2.991,0.754-9.295,0.97-13.336
			h-0.216c-1.616,4.042-4.094,10.507-5.386,13.255l-5.172,11.235H236.469z"/>
		<path fill="none" stroke="#FF0000" stroke-width="4" stroke-miterlimit="10" d="M274.386,35.417H261.89l2.908-11.315h40.829
			l-2.909,11.315h-12.389l-11.096,43.161H263.29L274.386,35.417z"/>
		<path fill="none" stroke="#FF0000" stroke-width="4" stroke-miterlimit="10" d="M338.589,55.301h-15.189l-3.447,12.689h17.451
			l-2.801,10.588h-33.18l13.896-54.477h31.995l-2.801,10.507h-15.729l-3.017,10.669h15.405L338.589,55.301z"/>
	</g>
	<g>
		<rect x="39.333" y="184.668" width="304" height="4"/>
	</g>
	<g id="Arrow_27_1_">
		<rect x="95.668" y="208.388" fill="none" width="25.332" height="14.561"/>
		<g>
			<polygon fill="#231F20" points="95.668,220.935 108.374,220.935 108.374,222.948 121,215.668 108.374,208.388 108.374,210.398 
				95.668,210.398 			"/>
		</g>
	</g>
	<g id="Arrow_27">
		<rect x="263.167" y="208.388" fill="none" width="25.332" height="14.561"/>
		<g>
			<polygon fill="#231F20" points="288.499,210.401 275.792,210.401 275.792,208.388 263.167,215.668 275.792,222.948 
				275.792,220.938 288.499,220.938 			"/>
		</g>
	</g>
	<g>
		<path d="M139.655,217.572l3.506,0.85c-0.538,1.492-1.432,2.602-2.682,3.326s-2.836,1.086-4.758,1.086
			c-2.378,0-4.333-0.619-5.864-1.861c-1.531-1.24-2.296-2.938-2.296-5.09c0-2.275,0.77-4.043,2.309-5.303
			c1.54-1.26,3.563-1.889,6.072-1.889c2.19,0,3.97,0.494,5.338,1.482c0.814,0.584,1.425,1.424,1.833,2.52l-3.58,0.652
			c-0.212-0.709-0.653-1.268-1.325-1.68c-0.672-0.41-1.489-0.615-2.45-0.615c-1.327,0-2.404,0.363-3.231,1.092
			s-1.24,1.906-1.24,3.535c0,1.73,0.407,2.961,1.221,3.695s1.874,1.102,3.176,1.102c0.961,0,1.788-0.234,2.48-0.701
			C138.857,219.309,139.354,218.574,139.655,217.572z"/>
		<path d="M146.362,222.602v-13.566h3.616v11.262h8.991v2.305H146.362z"/>
		<path d="M161.437,222.602v-13.678h3.616v13.678H161.437z"/>
		<path d="M179.956,217.572l3.506,0.85c-0.538,1.492-1.432,2.602-2.682,3.326s-2.836,1.086-4.758,1.086
			c-2.378,0-4.333-0.619-5.864-1.861c-1.531-1.24-2.296-2.938-2.296-5.09c0-2.275,0.77-4.043,2.309-5.303
			c1.54-1.26,3.563-1.889,6.072-1.889c2.19,0,3.97,0.494,5.338,1.482c0.814,0.584,1.425,1.424,1.833,2.52l-3.58,0.652
			c-0.212-0.709-0.653-1.268-1.325-1.68c-0.672-0.41-1.489-0.615-2.45-0.615c-1.327,0-2.404,0.363-3.231,1.092
			s-1.24,1.906-1.24,3.535c0,1.73,0.407,2.961,1.221,3.695s1.874,1.102,3.176,1.102c0.961,0,1.788-0.234,2.48-0.701
			C179.158,219.309,179.655,218.574,179.956,217.572z"/>
		<path d="M186.614,222.602v-13.678h3.616v6.074l7.305-6.074h4.862l-6.743,5.328l7.109,8.35h-4.679l-4.923-6.42l-2.932,2.287v4.133
			H186.614z"/>
		<path d="M211.535,222.602v-13.678h5.412l3.249,9.33l3.213-9.33h5.424v13.678h-3.359v-10.768l-3.555,10.768h-3.481l-3.543-10.768
			v10.768H211.535z"/>
		<path d="M232.425,222.602v-13.678h13.279v2.314h-9.663v3.031h8.991v2.305h-8.991v3.723h10.005v2.305H232.425z"/>
		<path d="M250.432,219.074l-0.892-6.941v-3.209h3.714v3.209l-0.88,6.941H250.432z M249.687,222.602v-2.623h3.433v2.623H249.687z"/>
		<path d="M126.376,225.629v-2.006h129.248v2.006H126.376z"/>
	</g>
	<g id="HTTTf9.tif">
		
			<image overflow="visible" width="78" height="101" id="Layer_0_1_" xlink:href="7461865C812E89E8.png"  transform="matrix(0.2271 -0.101 0.101 0.2271 188.9932 219.5039)">
		</image>
	</g>
</g>
</svg>
