<?xml version="1.0" encoding="utf-8"?>
<!-- Generator: Adobe Illustrator 16.0.0, SVG Export Plug-In . SVG Version: 6.00 Build 0)  -->
<!DOCTYPE svg PUBLIC "-//W3C//DTD SVG 1.1//EN" "http://www.w3.org/Graphics/SVG/1.1/DTD/svg11.dtd">
<svg version="1.1" id="Layer_1" xmlns="http://www.w3.org/2000/svg" xmlns:xlink="http://www.w3.org/1999/xlink" x="0px" y="0px"
	 width="592.975px" height="65.457px" viewBox="423.975 0 592.975 65.457" enable-background="new 423.975 0 592.975 65.457"
	 xml:space="preserve">
<path fill="#FC0000" d="M59.425,16.841h-36.6v9.458H59.31v14.488H22.825v21.948H0V1.717h59.425V16.841z"/>
<path fill="#FC0000" d="M124.267,36.238l25.534,26.499h-27.436l-20.404-24.024v24.024H79.309V1.916h41.5
	c8.683,0,15.235,1.431,19.655,4.291c4.418,2.859,6.628,6.777,6.628,11.752c0,3.459-0.979,6.659-2.939,9.601
	c-1.959,2.94-4.957,5.193-8.991,6.761C132.125,35.546,128.494,36.186,124.267,36.238z M101.73,16.083v12.413h11.989
	c3.688,0,6.417-0.6,8.184-1.797c1.767-1.198,2.651-2.846,2.651-4.951c0-1.22-0.394-2.285-1.181-3.191
	c-0.788-0.905-1.854-1.54-3.199-1.914c-1.345-0.373-3.363-0.561-6.052-0.561L101.73,16.083L101.73,16.083z"/>
<path fill="#FC0000" d="M163.979,1.717h22.94v39.548c0,2.583,1.114,4.629,3.343,6.146c2.229,1.519,5.207,2.273,8.934,2.273
	c2.728,0,5.11-0.426,7.147-1.275c2.037-0.854,3.496-2.01,4.38-3.474c0.884-1.464,1.326-2.845,1.326-4.149V1.717h22.825v40.428
	c0,6.756-3.083,12.16-9.251,16.201c-6.167,4.045-14.938,6.065-26.312,6.065c-6.609,0-12.277-0.687-17.003-2.055
	c-4.726-1.369-8.415-3.105-11.066-5.207c-2.651-2.102-4.65-4.576-5.994-7.423c-0.846-1.81-1.268-4.11-1.268-6.905L163.979,1.717
	L163.979,1.717z"/>
<path fill="#FC0000" d="M280.752,62.737h-23.228V1.717h23.228V62.737z"/>
<path fill="#FC0000" d="M366.575,18.358h-22.422v44.379H320.81V18.358h-22.536V1.717h68.301V18.358L366.575,18.358z"/>
<path fill="#FC0000" d="M484.903,5.708v18.157c-1.27-2.1-3.958-3.963-8.069-5.585c-5.188-2.05-10.875-3.073-17.061-3.073
	c-4.496,0-7.858,0.586-10.089,1.756c-1.574,0.798-2.361,1.89-2.361,3.273c0,0.853,0.346,1.57,1.037,2.156
	c0.689,0.587,1.883,1.092,3.572,1.518c0.923,0.212,3.035,0.598,6.342,1.156c4.688,0.772,8.223,1.478,10.604,2.114
	c3.113,0.854,5.841,1.832,8.188,2.936c2.343,1.104,4.255,2.361,5.732,3.772c1.479,1.41,2.632,3.012,3.459,4.809
	c0.826,1.795,1.239,3.69,1.239,5.688c0,5.666-2.931,10.4-8.79,14.205c-5.86,3.805-13.862,5.707-24.006,5.707
	c-6.11,0-11.624-0.664-16.543-1.994c-4.918-1.329-8.55-2.859-10.896-4.59V42.103c1.038,1.227,2.308,2.249,3.807,3.074
	c2.688,1.488,6.128,2.726,10.315,3.712c4.188,0.983,8.588,1.476,13.199,1.476c3.996,0,6.907-0.48,8.732-1.455
	c1.822-0.973,2.735-2.137,2.735-3.492c0-0.877-0.394-1.648-1.181-2.315c-0.788-0.665-2.219-1.263-4.294-1.796
	c-1.346-0.346-4.996-1.116-10.952-2.312c-4.648-0.959-8.463-1.943-11.441-2.955c-2.978-1.013-5.417-2.193-7.318-3.553
	c-1.902-1.359-3.468-3.08-4.697-5.168c-1.229-2.088-1.845-4.397-1.845-6.924c0-3.617,1.326-7.064,3.977-10.335
	c2.651-3.275,6.571-5.767,11.758-7.482C445.248,0.86,451.262,0,458.102,0C468.322,0,477.256,1.902,484.903,5.708z"/>
<path fill="#FC0000" d="M505.709,1.717h22.94v39.548c0,2.583,1.115,4.629,3.344,6.146c2.227,1.519,5.205,2.273,8.932,2.273
	c2.73,0,5.111-0.426,7.15-1.275c2.035-0.854,3.494-2.01,4.379-3.474s1.326-2.845,1.326-4.149V1.717h22.824v40.428
	c0,6.756-3.084,12.16-9.252,16.201c-6.166,4.045-14.938,6.065-26.312,6.065c-6.609,0-12.277-0.687-17.002-2.055
	c-4.729-1.369-8.416-3.105-11.068-5.207c-2.648-2.102-4.648-4.576-5.994-7.423c-0.846-1.81-1.268-4.11-1.268-6.905L505.709,1.717
	L505.709,1.717z"/>
<path fill="#FC0000" d="M622.424,44.378v18.358h-22.939V1.717h37.293c6.916,0,12.199,0.406,15.85,1.215
	c3.65,0.812,6.572,1.971,8.762,3.474c2.191,1.502,3.92,3.498,5.189,5.984c1.27,2.49,1.9,5.261,1.9,8.321
	c0,4.496-1.26,8.606-3.773,12.333c-2.52,3.725-5.773,6.438-9.771,8.14c-5.031,2.13-11.449,3.192-19.252,3.192L622.424,44.378
	L622.424,44.378z M622.424,16.562V30.97h9.742c5.225,0,8.779-0.766,10.662-2.295c1.883-1.53,2.824-3.372,2.824-5.527
	c0-2.474-1.402-4.349-4.207-5.627c-1.35-0.64-3.9-0.958-7.666-0.958L622.424,16.562L622.424,16.562z"/>
<path fill="#FC0000" d="M708.42,44.378v18.358h-22.939V1.717h37.291c6.918,0,12.199,0.406,15.85,1.215
	c3.652,0.812,6.572,1.971,8.762,3.474c2.191,1.502,3.92,3.498,5.189,5.984c1.27,2.49,1.898,5.261,1.898,8.321
	c0,4.496-1.258,8.606-3.771,12.333c-2.521,3.725-5.773,6.438-9.771,8.14c-5.033,2.13-11.451,3.192-19.25,3.192L708.42,44.378
	L708.42,44.378z M708.42,16.562V30.97h9.742c5.225,0,8.779-0.766,10.662-2.295c1.883-1.53,2.824-3.372,2.824-5.527
	c0-2.474-1.402-4.349-4.207-5.627c-1.35-0.64-3.9-0.958-7.666-0.958L708.42,16.562L708.42,16.562z"/>
<path fill="#FC0000" d="M844.85,28.773c0,6.334-1.221,12.299-3.66,17.898c-2.441,5.603-6.6,9.902-12.479,12.912
	c-5.879,3.006-13.238,4.508-22.076,4.508c-5.879,0-10.875-0.45-14.986-1.354c-4.111-0.905-7.639-2.295-10.576-4.172
	c-2.939-1.876-5.504-4.261-7.695-7.162c-1.383-1.862-2.557-4.165-3.516-6.903c-1.461-4.178-2.189-8.516-2.189-13.012
	c0-5.613,0.92-10.725,2.768-15.326c0.924-2.394,2.371-4.581,4.352-6.564c1.979-1.981,4.555-3.698,7.725-5.149
	c3.168-1.45,6.867-2.553,11.096-3.313C797.834,0.379,802.293,0,806.983,0c6.031,0,11.758,0.652,17.176,1.956
	c3.648,0.876,6.705,2.043,9.164,3.492c2.459,1.45,4.398,3.054,5.82,4.809c1.422,1.756,2.596,3.846,3.518,6.267
	C844.12,20.409,844.85,24.491,844.85,28.773z M806.118,49.408c3.227,0,6.1-0.564,8.617-1.695c2.516-1.133,4.484-3.103,5.906-5.906
	c1.422-2.809,2.133-6.446,2.133-10.917c0-1.994-0.25-3.837-0.748-5.526c-0.5-1.689-1.25-3.066-2.25-4.129
	c-1.346-1.411-3.15-2.522-5.416-3.333c-2.27-0.812-4.785-1.216-7.553-1.216c-3.074,0-5.928,0.532-8.559,1.597
	c-2.633,1.062-4.68,2.667-6.139,4.808c-1.461,2.143-2.191,5.237-2.191,9.28c0,2.42,0.326,4.781,0.98,7.084
	c0.65,2.299,1.643,4.164,2.967,5.586c1.328,1.424,3.018,2.508,5.074,3.252C800.997,49.035,803.387,49.408,806.118,49.408z"/>
<path fill="#FC0000" d="M909.116,36.238l25.533,26.499h-27.438l-20.404-24.024v24.024h-22.65V1.916h41.498
	c8.686,0,15.236,1.431,19.656,4.291c4.418,2.859,6.629,6.777,6.629,11.752c0,3.459-0.98,6.659-2.939,9.601
	c-1.961,2.94-4.957,5.193-8.992,6.761C916.973,35.546,913.34,36.186,909.116,36.238z M886.579,16.083v12.413h11.99
	c3.688,0,6.416-0.6,8.184-1.797c1.766-1.198,2.65-2.846,2.65-4.951c0-1.22-0.395-2.285-1.182-3.191
	c-0.789-0.905-1.854-1.54-3.197-1.914c-1.348-0.373-3.365-0.561-6.055-0.561L886.579,16.083L886.579,16.083z"/>
<path fill="#FC0000" d="M1016.667,18.358h-22.422v44.379h-23.342V18.358h-22.537V1.717h68.301V18.358z"/>
</svg>
